<svg width="1150" height="1268" viewBox="0 0 1150 1268" fill="none" xmlns="http://www.w3.org/2000/svg">
<path d="M574.881 155.896C301.065 151.197 176.395 119.001 22.189 13.1654C-3.80481 -4.67541 -6.26331 -4.44022 11.1667 14.2154C67.0909 74.0776 184.547 138.929 266.78 155.346C394.089 180.763 542.074 190.9 641.243 180.996L656.692 179.453L655.155 194.828C654.309 203.283 652.27 214.927 650.626 220.702C644.353 242.721 644.943 316.399 651.476 327.463C652.052 328.433 656.247 325.598 660.801 321.163C670.851 311.371 670.099 313.87 654.061 343.546C643.959 362.24 641.409 369.27 637.322 389.744C631.414 419.328 632.85 417.807 614.479 413.942C592.527 409.324 591.057 408.245 592.178 397.571C592.693 392.689 593.621 374.992 594.242 358.246L595.374 327.797L576.586 347.746C553.506 372.252 532.203 430.329 543.16 438.874C543.576 439.195 554.778 444.775 568.057 451.27C614.313 473.896 637.622 501.342 640.979 537.137L642.1 549.086L650.099 542.656C661.14 533.782 663.003 520.227 656.286 497.6C650.555 478.287 649.686 479.029 672.234 483.974C714.541 493.253 723.76 499.446 737.308 527.681C745.643 545.052 747.226 547.16 750.123 544.756C752.945 542.414 754.068 542.931 757.816 548.3C780.629 580.983 824.626 599.939 894.529 607.201C995.321 617.669 1015.32 651.54 1001.73 788.728C998.189 824.453 997.4 862.128 1000.26 858.97C1002.11 856.922 1132.82 533.742 1132.82 531.207C1132.82 530.432 1127.39 534.957 1120.75 541.259C1070.75 588.728 1045.88 592.577 965.662 565.27C909.297 546.083 910.77 546.845 896.956 529.815C851.411 473.672 798.332 452.29 695.077 448.5C635.178 446.301 626.027 444.317 612.89 430.668C608.101 425.695 602.197 420.561 599.768 419.261C589.359 413.688 596.764 413.742 614.246 419.366C624.639 422.709 633.954 425.443 634.948 425.443C635.941 425.443 639.957 413.45 643.87 398.791C649.554 377.51 652.423 370.421 658.115 363.617C667.017 352.975 669.944 346.087 672.896 328.832C674.179 321.334 675.705 313.039 676.288 310.401L677.346 305.603L668.734 309.998C663.998 312.415 659.436 314.101 658.598 313.744C657.76 313.389 662.518 284.276 669.171 249.05C682.977 175.955 685.201 154.542 681.619 129.185C676.133 90.3578 672.95 86.9141 635.437 79.2179L616.957 75.4275L605.833 81.0659L594.709 86.704L606.052 88.048C649.551 93.2011 654.554 98.0562 657.076 137.568L658.338 157.328L574.881 155.896Z" fill="#851B13"/>
<path d="M680.112 614.441C679.047 581.616 679.389 582.25 658.989 575.372L644.689 570.551L643.289 595.244C642.518 608.824 640.003 627.912 637.699 637.66C625.375 689.839 628.796 695.496 702.425 744.749C790.963 803.973 826.904 874.996 870.292 1076.47C894.103 1187.02 906.473 1222.65 929.874 1248.07C947.818 1267.56 940.203 1266.36 1051.47 1267.16L1149.62 1267.86V1257.93V1247.99L1105 1249.2C1080.46 1249.86 1040.68 1252.46 1016.59 1254.97C979.802 1258.81 972.355 1259.09 970.056 1256.7C963.688 1250.09 916.886 1190.9 917.524 1190.26C917.908 1189.87 929.427 1191.91 943.117 1194.79C983.631 1203.31 1012.2 1206.8 1041.35 1206.78C1070.2 1206.77 1076.26 1205.95 1111.83 1197.29C1123.95 1194.33 1136.89 1191.91 1140.57 1191.91C1149.99 1191.91 1151.22 1188.2 1142.34 1186.53C1134.27 1185.02 1129.38 1185.55 1105.11 1190.56C1089.8 1193.72 1019.27 1200.84 1017.8 1199.37C1017.42 1198.99 1025.09 1186.59 1034.84 1171.83L1052.56 1144.99L1029.18 1127.19C1016.32 1117.4 1002.02 1105.81 997.404 1101.44C992.39 1096.7 983.295 1091.36 974.834 1088.2L960.663 1082.9V1105.69C960.663 1132.51 965.034 1143.27 988.878 1175.11C1004.73 1196.28 1005.02 1194.94 985.731 1189.53C917.558 1170.43 899.958 1127.02 929.195 1050.1L931.406 1044.28L955.248 1045.65C983.064 1047.24 1001.98 1052.4 1016.62 1062.42C1040.95 1079.06 1082.45 1099.51 1091.89 1099.51C1094.2 1099.51 1087.73 1087.1 1079.19 1075.13C1057.16 1044.24 1029.2 1032.02 971.438 1028.02C957.157 1027.03 945.223 1025.94 944.921 1025.6C944.616 1025.25 947.083 991.422 950.403 950.421C953.724 909.42 956.17 875.049 955.84 874.041C955.512 873.035 941.652 902.14 925.041 938.718C908.429 975.298 894.216 1005.61 893.454 1006.09C891.205 1007.47 879.131 966.741 873.616 939.171C865.436 898.286 864.086 877.596 864.086 793.133C864.086 698.549 863.798 697.823 850.462 758.701C840.626 803.606 839.929 805.783 836.868 801.107C826.879 785.844 807.584 764.528 795.699 755.627C782.342 745.621 774.081 741.064 738.032 723.805C698.579 704.916 682.037 673.68 680.112 614.441Z" fill="#851B13"/>
<path d="M1149.62 1120.95L1123.9 1111.41C1093.45 1100.1 1095.03 1100.38 1095.03 1106.44C1095.03 1109.1 1093.93 1112.37 1092.59 1113.72C1089.31 1117 1125.76 1134.68 1139.64 1136.54L1149.62 1137.88V1129.42V1120.95Z" fill="#851B13"/>
</svg>
