<svg width="42" height="42" viewBox="0 0 42 42" fill="none" xmlns="http://www.w3.org/2000/svg">
<path fill-rule="evenodd" clip-rule="evenodd" d="M1.36344 0.177648C-1.17321 1.39033 0.0629587 4.12548 3.1522 4.13532C5.47962 4.14271 6.05499 4.55123 6.37017 6.42011C6.44548 6.86654 7.29577 10.3106 8.25977 14.0734L10.0125 20.915L9.22268 21.0765C1.91525 22.5713 2.59323 33.0944 10.0256 33.5389C10.8031 33.5855 10.9338 33.6174 10.8954 33.7514C9.29495 39.3288 14.9409 43.9445 19.9698 41.17C22.264 39.9042 23.5859 36.875 22.9664 34.3028C22.8882 33.978 22.8226 33.679 22.8207 33.6383C22.8188 33.5977 23.9176 33.5645 25.2625 33.5645H27.7079L27.5501 34.1305C26.5622 37.6753 29.0657 41.3917 32.8077 41.9354C37.1116 42.5606 40.8518 38.3162 39.6854 34.1305L39.5276 33.5645H39.826C41.983 33.5645 42.7642 30.7495 40.9102 29.6569L40.4417 29.3808L25.1246 29.3316L9.80748 29.2824L9.51292 29.0705C8.83043 28.5796 8.48196 27.9691 8.48196 27.2644C8.48196 26.5596 8.83043 25.9491 9.51292 25.4582L9.80748 25.2463L21.639 25.1922C34.5328 25.1332 33.734 25.1701 35.0296 24.5754C36.5044 23.8984 37.6706 22.6887 38.2369 21.2483C38.6422 20.2174 41.9901 6.87067 41.9997 6.24745C42.0153 5.23539 41.4018 4.46776 40.3926 4.23691C40.101 4.17017 34.8723 4.13503 25.0185 4.13336L10.0863 4.13099L9.70291 3.36808C9.01138 1.99209 7.68921 0.870272 6.0543 0.272446C5.20911 -0.0366551 1.94951 -0.102512 1.36344 0.177648ZM35.7907 14.1175C33.8348 21.9475 35.5964 20.9593 23.5904 20.962L14.2995 20.9642L12.7283 14.6641L11.1573 8.36391H24.1926H37.2279L35.7907 14.1175ZM17.864 33.8223C19.0857 34.4492 19.314 36.1205 18.3147 37.1224C17.0355 38.4049 14.9621 37.6444 14.7881 35.8287C14.6306 34.1859 16.366 33.0538 17.864 33.8223ZM34.4532 33.7481C36.7272 34.7838 35.5657 38.2856 33.1416 37.7025C30.7786 37.1342 31.1893 33.5688 33.6177 33.5688C33.8607 33.5688 34.2367 33.6495 34.4532 33.7481Z" fill="white"/>
</svg>
