<svg width="22" height="25" viewBox="0 0 22 25" fill="none" xmlns="http://www.w3.org/2000/svg">
<path fill-rule="evenodd" clip-rule="evenodd" d="M14.8438 5.46875C14.8438 4.43275 14.4322 3.43918 13.6996 2.70661C12.9671 1.97405 11.9735 1.5625 10.9375 1.5625C9.9015 1.5625 8.90793 1.97405 8.17536 2.70661C7.4428 3.43918 7.03125 4.43275 7.03125 5.46875V6.25H14.8438V5.46875ZM16.4062 5.46875V6.25H21.875V21.875C21.875 22.7038 21.5458 23.4987 20.9597 24.0847C20.3737 24.6708 19.5788 25 18.75 25H3.125C2.2962 25 1.50134 24.6708 0.915291 24.0847C0.32924 23.4987 0 22.7038 0 21.875V6.25H5.46875V5.46875C5.46875 4.01835 6.04492 2.62735 7.07051 1.60176C8.0961 0.57617 9.4871 0 10.9375 0C12.3879 0 13.7789 0.57617 14.8045 1.60176C15.8301 2.62735 16.4062 4.01835 16.4062 5.46875ZM15.3969 13.8344C15.5436 13.6877 15.626 13.4887 15.626 13.2812C15.626 13.0738 15.5436 12.8748 15.3969 12.7281C15.2502 12.5814 15.0512 12.499 14.8438 12.499C14.6363 12.499 14.4373 12.5814 14.2906 12.7281L10.1562 16.8641L8.36563 15.0719C8.29299 14.9992 8.20675 14.9416 8.11185 14.9023C8.01694 14.863 7.91523 14.8428 7.8125 14.8428C7.70977 14.8428 7.60806 14.863 7.51315 14.9023C7.41825 14.9416 7.33201 14.9992 7.25937 15.0719C7.18674 15.1445 7.12912 15.2307 7.08981 15.3257C7.0505 15.4206 7.03026 15.5223 7.03026 15.625C7.03026 15.7277 7.0505 15.8294 7.08981 15.9243C7.12912 16.0193 7.18674 16.1055 7.25937 16.1781L9.60312 18.5219C9.6757 18.5946 9.76191 18.6524 9.85682 18.6917C9.95174 18.7311 10.0535 18.7514 10.1562 18.7514C10.259 18.7514 10.3608 18.7311 10.4557 18.6917C10.5506 18.6524 10.6368 18.5946 10.7094 18.5219L15.3969 13.8344Z" fill="#CA4F45"/>
</svg>
