<svg width="26" height="19" viewBox="0 0 26 19" fill="none" xmlns="http://www.w3.org/2000/svg">
<path d="M2.36364 0C1.73676 0 1.13556 0.249025 0.692293 0.692293C0.249025 1.13556 0 1.73676 0 2.36364V15.3636H2.36364C2.36364 16.3039 2.73717 17.2057 3.40208 17.8707C4.06698 18.5356 4.96878 18.9091 5.90909 18.9091C6.8494 18.9091 7.7512 18.5356 8.41611 17.8707C9.08101 17.2057 9.45455 16.3039 9.45455 15.3636H16.5455C16.5455 16.3039 16.919 17.2057 17.5839 17.8707C18.2488 18.5356 19.1506 18.9091 20.0909 18.9091C21.0312 18.9091 21.933 18.5356 22.5979 17.8707C23.2628 17.2057 23.6364 16.3039 23.6364 15.3636H26V9.45455L22.4545 4.72727H18.9091V0H2.36364ZM10.6364 2.36364L15.3636 7.09091L10.6364 11.8182V8.27273H3.54545V5.90909H10.6364V2.36364ZM18.9091 6.5H21.8636L24.1918 9.45455H18.9091V6.5ZM5.90909 13.5909C6.37925 13.5909 6.83015 13.7777 7.1626 14.1101C7.49505 14.4426 7.68182 14.8935 7.68182 15.3636C7.68182 15.8338 7.49505 16.2847 7.1626 16.6171C6.83015 16.9496 6.37925 17.1364 5.90909 17.1364C5.43893 17.1364 4.98803 16.9496 4.65558 16.6171C4.32313 16.2847 4.13636 15.8338 4.13636 15.3636C4.13636 14.8935 4.32313 14.4426 4.65558 14.1101C4.98803 13.7777 5.43893 13.5909 5.90909 13.5909ZM20.0909 13.5909C20.5611 13.5909 21.012 13.7777 21.3444 14.1101C21.6769 14.4426 21.8636 14.8935 21.8636 15.3636C21.8636 15.8338 21.6769 16.2847 21.3444 16.6171C21.012 16.9496 20.5611 17.1364 20.0909 17.1364C19.6208 17.1364 19.1699 16.9496 18.8374 16.6171C18.505 16.2847 18.3182 15.8338 18.3182 15.3636C18.3182 14.8935 18.505 14.4426 18.8374 14.1101C19.1699 13.7777 19.6208 13.5909 20.0909 13.5909Z" fill="#CA4F45"/>
</svg>
