<svg width="40" height="31" viewBox="0 0 40 31" fill="none" xmlns="http://www.w3.org/2000/svg">
<path fill-rule="evenodd" clip-rule="evenodd" d="M3.46974 0.103545C2.91328 0.256013 2.41955 0.461958 2.44452 0.531183C2.49211 0.662797 19.9321 12.7336 20.0372 12.7075C20.0956 12.6931 24.0669 9.93801 28.8622 6.58501C38.6017 -0.224842 37.7997 0.439027 36.646 0.141619C36.0174 -0.0203682 4.05578 -0.0570577 3.46974 0.103545ZM35.7472 7.20665C33.4265 8.82842 28.9633 11.9483 25.8291 14.1399C22.6949 16.3314 20.0718 18.1239 20 18.1232C19.9028 18.1222 7.85304 9.80138 0.511693 4.66574L0.033185 4.33104L0.00691058 15.6883C-0.0123167 23.9988 0.0074326 27.1732 0.0806008 27.5214C0.41312 29.1045 1.71483 30.4285 3.3569 30.8539C4.11329 31.0498 35.8927 31.0482 36.6494 30.8522C38.2924 30.4266 39.5859 29.109 39.9194 27.5214C39.9926 27.1732 40.0123 23.9898 39.9931 15.6518L39.9668 4.258L35.7472 7.20665Z" fill="white"/>
</svg>
