<svg width="508" height="355" viewBox="0 0 508 355" fill="none" xmlns="http://www.w3.org/2000/svg">
<path fill-rule="evenodd" clip-rule="evenodd" d="M383.963 0.587201C381.887 1.1582 379.621 2.5782 378.64 3.9232L377.713 5.1942L374.851 4.1872C368.746 2.0402 357.463 5.8327 357.463 10.0317C357.463 10.5982 357.171 10.7042 356.338 10.4397C349.887 8.3877 334.963 14.6037 334.963 19.3422C334.963 19.8192 334.112 20.1287 332.282 20.3177C327.314 20.8302 317.233 27.6262 316.352 31.0557C315.98 32.5022 315.741 32.6807 314.174 32.6807C310.645 32.6807 302.939 40.0487 301.125 45.1572C300.393 47.2167 299.986 47.6232 297.46 48.8097C292.004 51.3727 284.463 61.3367 284.463 65.9822C284.463 67.0947 284.225 67.6807 283.772 67.6807C281.802 67.6807 270.395 78.1042 268.201 81.9092C267.733 82.7207 267.427 82.7432 264.701 82.1682C257.893 80.7327 253.08 81.5107 251.222 84.3477C249.849 86.4427 250.092 350.255 251.468 352.188C253.45 354.971 262.442 355.397 271.379 353.131C280.948 350.704 286.105 344.397 282.257 339.824L281.051 338.39L284.182 337.268C294.423 333.595 302.496 320.432 307.491 299.262C308.032 296.97 308.711 294.651 309.001 294.11C309.29 293.569 309.826 291.395 310.19 289.279C310.555 287.162 311.205 283.743 311.636 281.681C312.97 275.282 314.978 263.965 315.462 260.11C316.905 248.633 316.562 249.559 319.223 249.958C322.738 250.486 323.619 250.003 330.359 243.856C359.065 217.677 367.779 193.164 359.927 160.681C357.132 149.121 357.198 148.8 363.145 144.996C368.346 141.669 373.878 135.515 384.555 121.181C387.175 117.662 392.963 111.554 392.963 112.307C392.963 113.77 383.431 126.641 378.944 131.235C375.178 135.092 374.128 137.234 374.948 139.391C375.231 140.136 375.463 140.835 375.463 140.944C375.463 141.054 374.226 142.53 372.713 144.225C369.551 147.769 369.031 150.361 370.986 152.846C374.673 157.533 381.697 153.939 395.174 140.469C396.803 138.84 397.962 137.94 397.749 138.469C397.536 138.998 397.125 140.106 396.836 140.931C396.547 141.756 395.882 143.046 395.358 143.799C391.52 149.31 389.39 156.653 389.155 165.181C389.068 168.343 388.854 174.572 388.679 179.023C388.017 195.815 396.669 213.206 407.12 216.091C408.035 216.344 409.893 217.403 411.249 218.444C420.941 225.892 435.984 226.643 444.084 220.084C447.248 217.523 447.305 217.509 449.133 218.903C452.934 221.803 469.135 213.338 472.056 206.926C472.343 206.297 474.563 204.076 476.99 201.99C483.676 196.243 489.947 186.9 489.958 182.667C489.962 181.384 490.522 180.16 492.016 178.173C498.244 169.884 504.125 152.773 503.442 144.931C503.394 144.381 503.957 142.508 504.694 140.77C507.729 133.602 508.43 122.907 506.074 119.722C504.94 118.19 504.939 118.169 505.806 115.307C508.448 106.585 506.574 95.2222 502.088 92.7682C500.305 91.7927 500.01 91.4192 500.254 90.4452C501.217 86.6102 498.676 73.5162 495.486 65.8712C490.172 53.1352 486.304 49.4172 480.915 51.8657C480.295 52.1477 479.917 51.6952 479.216 49.8297C471.577 29.4937 451.358 9.3757 443.641 14.4322L442.341 15.2842L438.777 11.7602C430.024 3.1052 411.928 -2.2548 405.709 1.9657L403.815 3.2507L400.764 1.8672C397.621 0.441701 387.339 -0.341799 383.963 0.587201ZM401.083 3.6252L404.453 5.2482L405.633 3.8767C410.087 -1.3013 429.078 4.1992 438.072 13.2717L442.43 17.6687L443.674 16.4247C450.367 9.7317 473.197 33.7182 478.993 53.5317L479.607 55.6327L480.986 54.1567C487.216 47.4872 498.462 69.0627 498.656 88.0557L498.713 93.6802L499.963 93.6917C504.86 93.7357 507.277 106.947 504.027 115.906L502.948 118.881L504.331 119.983C507.167 122.244 506.32 134.004 502.785 141.449C501.266 144.646 501.17 145.1 501.824 145.967C503.956 148.794 496.492 169.685 490.505 177.646C489.109 179.503 488.463 180.866 488.463 181.958C488.463 186.997 481.082 197.354 473.625 202.779C472.476 203.614 471.275 204.928 470.956 205.698C468.532 211.551 452.734 220.38 449.963 217.431C448.304 215.665 447.048 215.863 443.774 218.405C435.108 225.134 421.755 224.593 411.963 217.116C410.726 216.171 408.661 214.999 407.376 214.512C397.387 210.728 390.178 196.67 390.282 181.181C390.428 159.561 390.907 155.72 394.29 149.054C395.302 147.061 397.213 143.293 398.537 140.681C399.876 138.04 402.448 134.122 404.329 131.857C406.19 129.617 408.31 127.014 409.038 126.072C414.363 119.191 432.303 110.446 435.306 113.268C438.022 115.819 433.023 129.241 428.444 131.691C427.657 132.112 427.463 132.746 427.463 134.895C427.463 137.163 427.24 137.814 426.011 139.129C424.653 140.584 424.549 140.99 424.386 145.476C424.224 149.975 424.13 150.34 422.848 151.442C421.512 152.591 421.495 152.674 422.049 155.433C422.525 157.798 422.488 158.518 421.821 159.917C421.068 161.496 421.08 161.631 422.046 162.506C423.745 164.043 424.607 166.266 424.662 169.25L424.713 172.085L427.063 173.079C429.433 174.082 431.457 176.487 431.461 178.306C431.465 179.809 432.278 179.266 433.079 177.226C434.293 174.137 437.29 172.431 441.504 172.431H444.868L445.194 169.972C446.055 163.476 450.937 158.855 453.855 161.772C454.89 162.808 454.969 161.961 454.206 157.977C452.876 151.024 453.533 147.861 456.503 146.918C457.483 146.607 457.47 146.535 456.116 144.763C453.408 141.222 453.922 133.052 456.945 131.588L458.341 130.912L456.427 127.748C453.923 123.605 453.013 119.501 454.157 117.505C454.955 116.114 454.934 116.024 453.28 113.755C450.245 109.591 448.824 106.252 449.169 104.098C449.417 102.547 449.322 102.181 448.676 102.181C446.401 102.181 439.086 93.2447 439.812 91.3532C440.005 90.8517 439.501 90.6807 437.828 90.6807C431.627 90.6807 426.463 88.3687 426.463 85.5922C426.463 84.7322 426.296 84.7717 424.766 85.9927L423.068 87.3467L424.723 88.9077C427.772 91.7832 427.465 95.7517 423.792 100.932C422.924 102.158 420.429 105.696 418.249 108.795C395.413 141.257 376.003 159.229 371.953 151.661C370.757 149.426 371.358 147.704 374.465 144.468L377.467 141.342L376.68 139.765C375.559 137.518 376.01 136.638 380.99 131.348C385.236 126.838 397.026 110.015 397.157 108.279C397.348 105.755 388.129 113.656 383.561 119.931C373.104 134.296 363.505 144.681 360.683 144.681C356.706 144.681 355.887 150.396 358.404 160.578C366.447 193.112 356.883 219.039 327.513 244.318C321.877 249.169 319.62 249.836 316.967 247.434C315.721 246.307 315.649 246.609 313.998 259.836C313.497 263.841 311.348 275.833 309.857 282.931C309.279 285.681 308.635 289.124 308.425 290.582C308.214 292.04 307.826 293.502 307.561 293.832C307.297 294.161 306.725 296.011 306.292 297.942C301.364 319.882 293.455 332.491 282.146 336.434C279.165 337.473 277.178 339.181 278.949 339.181C281.672 339.181 282.72 343.756 280.626 346.501C276.248 352.241 254.912 355.757 252.444 351.145C252.14 350.576 251.963 301.684 251.963 217.941V85.6352L253.12 84.4787C255.103 82.4952 265.604 82.6212 267.635 84.6527C268.437 85.4542 268.963 85.2872 268.963 84.2302C268.963 81.6277 280.286 70.5622 284.426 69.1187C285.699 68.6752 285.867 68.3512 286.065 65.9622C286.576 59.8027 295.993 49.1807 300.943 49.1807C301.718 49.1807 301.968 48.8497 301.984 47.8057C302.057 43.0512 310.612 34.1807 315.125 34.1807C317.313 34.1807 317.339 34.1612 317.652 32.2012C318.265 28.3697 329.31 21.2497 333.707 21.8522C335.752 22.1327 335.858 22.0827 336.133 20.7082C337.202 15.3607 349.275 9.9582 355.759 11.9252C358.987 12.9047 358.963 12.9097 358.963 11.2252C358.963 6.6032 368.638 3.4157 375.165 5.8867C377.064 6.6057 378.666 7.1347 378.726 7.0622C378.787 6.9897 379.18 6.2532 379.601 5.4257C381.756 1.1812 393.896 0.163701 401.083 3.6252ZM385.088 7.5117C383.896 7.9927 384.496 8.5977 390.95 13.4207C401.452 21.2687 410.268 33.4487 412.332 42.9612C413.238 47.1367 413.102 47.0617 417.641 45.8832C421.256 44.9447 427.178 45.2602 432.58 46.6782C436.649 47.7467 436.622 47.9267 433.214 42.4982C418.305 18.7532 396.505 2.9052 385.088 7.5117ZM410.224 7.6577C409.287 8.0047 409.3 8.0572 410.474 8.6682C420.591 13.9297 433.292 30.3997 438.325 44.7832L439.713 48.7517L444.547 51.2412C450.869 54.4977 454.631 57.4057 460.669 63.7052C467.046 70.3567 466.986 69.5992 459.892 53.8952C450.549 33.2097 438.015 16.4602 428.307 11.6847C422.514 8.8347 412.856 6.6842 410.224 7.6577ZM366.088 11.2612C363.365 12.5817 363.412 12.8852 366.588 14.4917C378.419 20.4752 393.921 39.1757 395.299 49.1252C395.734 52.2742 395.746 52.2852 397.722 51.4592C398.702 51.0497 402.139 50.0092 405.359 49.1467C408.579 48.2842 411.284 47.5117 411.371 47.4302C412.215 46.6362 400.86 29.6252 397.14 26.1102C385.75 15.3487 371.606 8.5852 366.088 11.2612ZM345.938 18.8532C340.186 22.2587 340.166 22.3427 344.642 24.3827C354.283 28.7762 364.051 38.3367 371.401 50.5737C373.531 54.1212 374.448 56.1647 376.933 62.9072C377.273 63.8277 377.362 63.8052 378.48 62.5192C380.093 60.6632 383.668 58.4322 387.516 56.8787C389.274 56.1687 391.444 55.1402 392.338 54.5937L393.963 53.5992L391.211 48.2197C381.101 28.4547 356.583 12.5507 345.938 18.8532ZM447.463 20.9377C447.463 21.0792 448.42 22.3727 449.59 23.8127C458.45 34.7182 468.018 57.1542 468.192 67.4307L468.268 71.9307L471.297 76.6807C474.571 81.8132 477.959 88.3032 478.933 91.3057C479.267 92.3372 479.721 93.1807 479.942 93.1807C480.609 93.1807 481.052 79.2107 480.481 76.1807C480.196 74.6682 479.759 72.1697 479.511 70.6287C477.005 55.0667 468.929 38.5657 458.968 28.6547C454.144 23.8547 447.463 19.3737 447.463 20.9377ZM330.168 28.0452C322.093 32.6727 321.418 34.1047 326.338 36.1632C339.013 41.4667 356.171 61.5977 359.937 75.5832C360.658 78.2617 360.567 78.2857 364.79 74.3037C366.758 72.4487 369.838 69.8057 371.637 68.4307C375.464 65.5037 375.477 65.4482 373.262 61.4182C362.913 42.5912 338.192 23.4467 330.168 28.0452ZM310.713 43.1707C307.33 47.1242 306.567 48.6562 307.251 50.1237C308.983 53.8432 339.088 84.0587 347.248 90.2682L350.319 92.6052L353.104 89.7682C359.552 83.1987 360.224 81.1677 357.645 76.0432C349.474 59.8052 327.797 40.8852 316.213 39.8812L313.713 39.6647L310.713 43.1707ZM418.632 48.4837C416.125 49.7197 415.77 51.2672 416.14 59.3387C416.528 67.7772 415.918 73.8602 414.21 78.5947C412.309 83.8657 412.645 84.1617 420.554 84.1762C428.342 84.1907 441.934 57.3127 436.626 52.3937C432.145 48.2412 423.106 46.2767 418.632 48.4837ZM401.646 52.1682C400.009 52.9862 398.141 54.3702 397.495 55.2442L396.321 56.8332L397.267 59.3822C399.136 64.4167 398.581 76.9857 396.141 84.8822C395.76 86.1167 399.775 85.7532 403.184 84.2452C408.741 81.7872 416.519 55.7147 412.97 51.4392C411.768 49.9907 405.152 50.4167 401.646 52.1682ZM298.094 56.6242C288.563 64.1582 288.724 71.1187 298.7 82.8562C306.068 91.5257 332.574 108.181 339.002 108.181C342.219 108.181 349.914 93.0997 347.338 91.8437C341.283 88.8907 324.077 75.6117 312.826 65.2092C299.909 53.2667 301.31 54.0827 298.094 56.6242ZM440.806 60.5377C441.269 69.8037 438.834 77.7157 433.734 83.5112C430.95 86.6747 430.915 86.3892 434.194 87.1762C443.432 89.3922 463.269 82.3647 464.781 76.3397C466.126 70.9812 450.871 56.4367 442.362 54.9647L440.511 54.6442L440.806 60.5377ZM389.463 58.1482C381.221 60.6647 378.78 65.1037 380.21 74.9737C380.812 79.1292 381.022 82.8077 380.863 86.3922C380.591 92.5047 380.393 92.3502 385.213 89.7897C390.79 86.8277 394.219 78.3132 394.829 65.9142C395.244 57.5047 394.604 56.5787 389.463 58.1482ZM485.173 60.4307C486.565 73.7862 485.785 84.7862 482.921 92.1807C481.087 96.9132 481.081 96.7907 483.427 102.31C485.353 106.843 486.963 113.15 486.963 116.16C486.963 118.661 487.706 117.923 489.866 113.273C497.917 95.9457 496.929 78.0737 487 61.4307L484.912 57.9307L485.173 60.4307ZM373.163 71.1017C365.26 76.8617 363.789 81.8807 367.655 89.8902C368.86 92.3877 370.042 94.9417 370.28 95.5657C372.263 100.761 376.315 89.4227 376.805 77.3057C377.158 68.5837 376.997 68.3082 373.163 71.1017ZM282.463 77.0007C272.332 85.3587 271.181 90.0352 276.053 103.057C282.689 120.791 313.917 138.838 326.832 132.403C331.724 129.965 338.463 116.969 338.463 109.974C338.463 109.838 337.62 109.595 336.588 109.434C330.761 108.526 328.459 107.947 324.317 106.348C307.245 99.7547 291.3 87.0407 287.176 76.7332C286.155 74.1812 285.861 74.1982 282.463 77.0007ZM463.463 82.1597C459.443 86.2062 452.651 90.2932 447.923 91.5107C443.748 92.5862 443.742 92.6417 447.389 96.5022C452.669 102.092 466.573 103.235 475.835 98.8397L477.586 98.0082L477.335 94.8717C476.882 89.2347 472.479 81.6717 468.545 79.7732L466.713 78.8892L463.463 82.1597ZM358.909 88.5557C357.488 90.6867 355.872 92.9307 355.32 93.5417L354.315 94.6527L357.684 98.4167C361.498 102.678 361.42 102.646 363.747 100.871C365.822 99.2887 365.857 98.6962 364.274 91.9037C362.317 83.5002 362.292 83.4847 358.909 88.5557ZM256.797 88.5142C256.613 88.6972 256.463 137.635 256.463 197.264V305.681H261.549C264.347 305.681 268.453 305.36 270.674 304.968C285.841 302.294 288.645 302.233 290.461 304.542C294.445 309.607 285.566 322.263 278.105 322.153L276.213 322.125L277.702 321.028C283.21 316.97 283.067 313.822 277.503 316.66C267.792 321.615 266.021 333.457 274.776 334.906C286.348 336.822 298.166 321.318 302.962 297.931C303.301 296.281 303.889 294.323 304.27 293.581C304.651 292.838 304.963 291.686 304.963 291.02C304.963 290.354 305.526 287.592 306.213 284.881C306.901 282.171 307.463 279.361 307.463 278.636C307.463 277.911 308.002 274.644 308.661 271.375C309.32 268.105 310.005 264.193 310.182 262.681C311.049 255.293 315.428 229.541 315.9 229.055C316.212 228.734 317.202 232.119 320.144 243.556C320.866 246.364 321.025 246.318 326.232 241.756C353.862 217.556 362.794 192.858 354.945 162.361C352.914 154.467 352.505 150.232 353.596 148.385C355.503 145.154 357.43 143.16 359.669 142.099C363.206 140.421 368.286 135.144 375.714 125.431C390.191 106.497 400.079 99.3452 409.561 100.947C412.413 101.429 410.995 108.506 406.886 114.294C401.902 121.315 389.667 136.221 383.928 142.263C375.2 151.452 374.802 152.604 382.589 146.133C399.138 132.384 426.297 96.2032 422.437 93.0502C419.843 90.9317 402.112 93.1067 390.463 96.9727C374.105 102.401 350.325 121.306 339.63 137.383C334.546 145.026 327.4 146.275 314.963 141.694C290.566 132.706 269.121 110.962 266.448 92.5027C265.944 89.0197 259.114 86.1967 256.797 88.5142ZM432.213 91.4207C433.863 91.8192 435.821 92.1532 436.565 92.1627C437.661 92.1772 438.101 92.5822 438.894 94.3057C439.873 96.4332 446.002 103.181 446.956 103.181C447.235 103.181 447.463 103.976 447.463 104.947C447.463 106.845 449.2 110.679 451.55 113.967C452.815 115.737 452.936 116.188 452.471 117.409C451.722 119.382 452.59 123.721 454.472 127.403C455.822 130.044 455.901 130.426 455.18 130.829C452.874 132.12 452.054 140.933 453.951 144.045L454.935 145.659L453.687 147.006C451.817 149.025 451.485 153.302 452.792 158.556C453.045 159.575 452.891 159.682 451.142 159.692C447.613 159.712 445.169 162.89 443.749 169.306C443.485 170.496 443.201 170.681 441.637 170.681C438.85 170.681 436.145 171.679 434.031 173.488L432.107 175.136L430.726 173.694C429.967 172.902 428.741 172.003 428.003 171.697C426.839 171.215 426.584 170.701 426.095 167.846C425.754 165.856 425.033 163.851 424.273 162.784C423.305 161.422 423.13 160.803 423.513 160.088C423.802 159.548 423.867 157.895 423.67 156.148C423.365 153.453 423.447 153.012 424.457 151.937C425.412 150.92 425.624 150.021 425.835 146.083C426.02 142.624 426.309 141.174 426.961 140.431C428.415 138.773 428.963 137.351 428.963 135.238C428.963 133.982 429.241 133.075 429.706 132.815C432.145 131.45 437.963 120.051 437.963 116.637C437.963 108.19 431.467 108.536 417.626 117.72C413.929 120.174 410.811 122.181 410.697 122.181C410.484 122.181 418.571 110.713 423.239 104.397C427.16 99.0892 428.156 96.9047 428.178 93.5557C428.199 90.3462 428.063 90.4187 432.213 91.4207ZM352.718 97.9307C352.528 98.4807 351.032 101.825 349.392 105.363C345.651 113.435 345.9 113.425 357.08 105.078C357.882 104.479 357.808 104.222 356.08 101.628C355.053 100.087 353.954 98.3997 353.638 97.8782C353.077 96.9552 353.053 96.9567 352.718 97.9307ZM499.81 99.5557C499.693 99.7617 499.089 101.506 498.468 103.431C496.759 108.725 493.584 114.494 490.609 117.706L487.942 120.587L488.703 124.95C489.121 127.349 489.463 130.674 489.463 132.34V135.368L491.007 133.899C494.671 130.414 499.886 120.148 501.242 113.75C502.676 106.988 501.605 96.3877 499.81 99.5557ZM477.445 100.897C473.774 104.491 463.269 107.511 457.088 106.749C453.495 106.307 453.425 106.419 455.299 109.637C462.281 121.624 483.344 128.145 484.763 118.759C485.963 110.819 480.624 97.7862 477.445 100.897ZM407.656 106.263C404 109.005 401.45 112.103 395.594 120.913C391.297 127.377 387.926 131.814 385.002 134.855C380.774 139.253 380.677 139.843 384.504 137.898C389.75 135.232 398.361 125.074 404.797 113.96C409.959 105.046 410.222 104.337 407.656 106.263ZM428.213 119.147C417.044 125.654 408.72 133.296 403.941 141.431C401.639 145.351 401.704 145.428 407.355 145.449C412.017 145.466 412.432 145.558 416.23 147.428C418.421 148.506 420.411 149.483 420.652 149.598C423.002 150.717 419.858 137.804 416.984 134.53C415.566 132.916 415.484 132.681 416.336 132.681C417.385 132.681 420.608 134.852 422.166 136.608C423.733 138.373 423.963 137.901 423.963 132.931C423.963 128.622 424.355 127.291 425.213 128.681C426.461 130.7 432.963 121.828 432.963 118.106C432.963 117.228 430.628 117.74 428.213 119.147ZM458.659 122.286C460.629 132.135 477.616 140.953 485.132 136.03C487.828 134.263 488.396 127.097 486.095 123.866L484.984 122.306L482.743 123.441C478.175 125.754 468.352 125.322 462.463 122.549C458.028 120.461 458.298 120.48 458.659 122.286ZM501.649 125.225C501.338 125.613 500.618 126.857 500.047 127.99C498.42 131.22 494.224 135.499 491.758 136.44L489.59 137.268L489.652 143.349C489.686 146.694 489.521 150.633 489.285 152.102C488.072 159.667 499.831 143.429 501.73 134.917C502.632 130.875 502.575 124.067 501.649 125.225ZM459.297 137.014C454.416 141.895 472.771 156.681 483.711 156.681C488.235 156.681 490.463 142.841 486.676 138.257C486.598 138.162 484.999 138.709 483.123 139.473C476.913 142.002 467.179 141.268 462.212 137.897C460.324 136.617 459.841 136.47 459.297 137.014ZM401.071 147.816C398.128 150.948 395.463 159.213 395.463 165.205C395.463 169.392 395.13 169.36 400.01 165.645C405.082 161.784 408.654 160.144 412.618 159.856C418.82 159.405 418.968 159.348 418.641 157.536C417.353 150.395 405.045 143.586 401.071 147.816ZM495.449 152.948C493.669 154.745 491.375 156.601 490.351 157.073L488.489 157.931L488.476 162.307C488.462 167.14 486.919 172.577 484.16 177.516C481.507 182.265 484.346 181.072 488.314 175.77C491.267 171.824 500.207 149.681 498.846 149.681C498.757 149.681 497.228 151.151 495.449 152.948ZM458.463 154.549C458.463 165.682 467.277 178.436 476.275 180.323L479.087 180.913L480.579 179.172C484.304 174.822 486.347 168.259 485.654 162.866L485.213 159.431L480.463 159.597C472.558 159.874 464.738 157.587 460.315 153.703L458.463 152.077V154.549ZM314.463 158.422C314.463 158.555 313.317 159.245 311.917 159.954C301.046 165.463 289.526 176.702 286.414 184.834C285.143 188.156 284.753 188.324 283.951 185.893C281.908 179.705 287.129 171.825 297.646 165.225C305.358 160.385 314.463 156.702 314.463 158.422ZM405.463 166.589C393.278 169.778 390.456 185.092 399.068 201.293C401.6 206.056 410.725 214.425 409.767 211.105C405.82 197.433 410.802 177.049 419.16 172.67C421.715 171.331 421.977 170.053 420.24 167.401C418.975 165.471 411.339 165.051 405.463 166.589ZM450.63 169.056C448.781 173.846 449.62 181.988 452.565 187.851C454.4 191.503 461.048 200.183 462.239 200.482C465.769 201.368 476.245 190.601 477.633 184.659C477.921 183.426 477.752 183.329 472.072 181.465C462.352 178.275 456.491 174.338 453.603 169.056C452.889 167.749 452.134 166.681 451.925 166.681C451.717 166.681 451.134 167.749 450.63 169.056ZM339.963 178.75C339.963 179.339 339.326 180.858 338.546 182.125C336.965 184.699 334.861 189.764 333.955 193.178C331.626 201.957 327.345 204.953 315.05 206.411C311.402 206.843 308.282 207.519 306.73 208.213C298.98 211.678 288.595 205.151 289.561 197.422L289.747 195.931L290.629 197.924C294.797 207.343 303.06 205.189 310.739 192.681C315.015 185.716 316.081 184.996 328.213 180.879C338.4 177.423 339.963 177.14 339.963 178.75ZM421.059 180.947C414.668 187.921 411.365 199.312 412.68 209.84C413.863 219.305 432.869 223.835 441.463 216.7L442.713 215.662L440.911 214.046C431.643 205.74 427.061 195.727 427.659 185.093C427.978 179.427 427.954 179.231 426.864 178.468C425.017 177.174 424.194 177.525 421.059 180.947ZM438.366 179.201C437.149 180.418 436.904 181.007 437.134 182.16C437.335 183.162 437.125 183.976 436.443 184.844C432.257 190.165 438.37 210.45 444.985 213.19C448.003 214.44 455.76 210.991 459.674 206.658C462.138 203.931 462.054 203.732 456.955 200.175C447.648 193.682 442.126 186.046 442.585 180.306C442.849 177.018 441.026 176.541 438.366 179.201ZM480.131 185.577C478.745 189.206 474.138 196.188 471.072 199.306C466.562 203.892 469.371 202.971 475.095 197.987C478.935 194.643 484.963 186.143 484.963 184.072C484.963 182.04 481.012 183.271 480.131 185.577ZM328.571 186.577C326.145 187.576 325.508 188.049 325.772 188.651C328.427 194.683 322.671 199.599 315.354 197.55C314.176 197.22 313.893 197.367 313.229 198.65C312.005 201.017 312.17 201.144 316.088 200.857C323.13 200.341 324.89 199.208 327.489 193.515C328.389 191.544 329.786 188.959 330.593 187.771C332.441 185.049 332.375 185.01 328.571 186.577ZM282.377 214.287C286.879 241.523 287.586 249.669 287.772 276.407C287.918 297.473 287.966 298.438 288.925 299.735C289.733 300.828 289.79 301.14 289.224 301.358C288.154 301.768 280.134 292.81 280.892 292.052C281.333 291.611 281.659 291.737 282.246 292.576C283.135 293.845 284.565 294.013 285.446 292.951C286.069 292.201 285.095 271.528 283.974 261.681C283.708 259.343 283.256 254.281 282.97 250.431C281.344 228.547 279.987 213.8 278.459 201.405C278.187 199.191 277.97 196.603 277.979 195.655C278.024 190.741 279.562 197.253 282.377 214.287ZM459.713 210.002C454.613 214.899 454.395 215.183 456.713 213.914C460.609 211.782 467.963 206.01 467.963 205.085C467.963 203.226 464.819 205.1 459.713 210.002ZM274.713 309.18C272.513 309.683 268.087 311.126 264.876 312.388C261.666 313.649 258.46 314.681 257.751 314.681H256.463V328.248L257.588 327.901C260.034 327.147 261.499 326.07 263.806 323.33C269.828 316.178 276.182 310.681 278.426 310.681C278.78 310.681 279.737 310.118 280.554 309.431L282.04 308.181L280.377 308.223C279.462 308.246 276.913 308.677 274.713 309.18ZM257.088 342.012C256.662 342.184 256.463 343.524 256.463 346.222V350.181H259.677C267.039 350.181 274.573 348.358 277.363 345.901L278.713 344.712L274.504 344.697C269.472 344.678 264.512 343.878 261.547 342.608C259.386 341.683 258.272 341.534 257.088 342.012Z" fill="black"/>
<path fill-rule="evenodd" clip-rule="evenodd" d="M106.001 2.15565C107.435 1.53265 109.283 0.856651 110.108 0.653151C116.27 -0.866849 124.975 0.380651 127.949 3.20965L130.029 5.18865L132.713 4.18465C138.514 2.01365 147.865 4.81865 149.53 9.22915C149.977 10.4137 150.312 10.6687 151.103 10.4257C157.471 8.46715 168.549 12.7091 171.9 18.3886C172.742 19.8166 173.218 20.0842 175.374 20.3391C181.02 21.0082 191.345 28.4166 191.356 31.8056C191.358 32.4741 191.777 32.6806 193.133 32.6806C197.036 32.6806 205.759 41.2291 206.638 45.9151C206.9 47.3081 207.324 47.6896 209.713 48.6796C215.06 50.8961 222.152 59.7616 222.738 64.9621C222.943 66.7756 223.259 67.3621 224.331 67.9166C228.198 69.9161 237.716 78.7241 238.96 81.4536C239.472 82.5776 239.776 82.7216 241.083 82.4571C249.645 80.7246 254.254 81.2271 256.209 84.1061C257.273 85.6731 257.939 346.568 256.889 350.211C255.818 353.921 254.611 354.444 247.384 354.327C230.756 354.057 220.171 347.254 225.093 340.001C225.772 339 226.077 338.181 225.771 338.181C216.466 338.181 204.006 319.184 199.864 298.681C199.503 296.893 198.888 294.793 198.498 294.014C198.108 293.235 197.49 290.872 197.124 288.764C196.758 286.656 196.118 283.243 195.702 281.181C195.287 279.118 194.681 275.856 194.356 273.931C194.031 272.006 193.355 268.068 192.855 265.181C192.355 262.293 191.67 257.664 191.332 254.894L190.719 249.858L184.01 249.931L180.559 246.933C149.703 220.125 139.275 193.262 147.31 161.279C150.092 150.208 149.862 148.013 145.695 145.849C140.832 143.324 136.787 139.147 127.371 126.931C121.611 119.456 113.101 109.928 114.67 112.709C117.332 117.429 123.901 126.281 127.643 130.191C132.498 135.265 133.579 137.408 132.501 139.824C132.094 140.735 132.424 141.378 134.638 143.987C137.668 147.56 138.275 149.424 137.13 151.64C133.932 157.823 127.64 155.249 114.264 142.284L109.42 137.589L110.423 140.231C110.976 141.685 111.87 143.495 112.411 144.255C116.009 149.307 118.45 158.052 118.392 165.681C118.372 168.293 118.488 174.422 118.648 179.3C118.975 189.226 117.739 195.762 114.321 202.175C111.036 208.338 102.838 216.181 99.6804 216.181C99.2804 216.181 97.9879 216.987 96.8079 217.973C86.9514 226.208 71.7234 226.829 62.5244 219.37L62.3591 219.236C61.1142 218.226 60.5522 217.77 60.0181 217.801C59.5787 217.826 59.158 218.18 58.3914 218.826L58.2674 218.931C54.5914 222.024 38.8944 213.566 35.2994 206.556C34.7709 205.525 34.1364 204.681 33.8899 204.681C30.2684 204.681 17.4339 187.081 17.3749 182.034C17.3649 181.21 16.5609 179.571 15.4134 178.034C10.4494 171.389 3.73443 153.753 3.89143 147.774C3.99093 143.989 3.82793 143.016 2.62143 140.205C-0.299572 133.398 -0.879573 123.769 1.38843 119.734C2.30993 118.095 2.39393 117.544 1.94193 116.115C-1.08407 106.562 0.600427 94.7841 5.27793 92.7866L7.22393 91.9556L7.50093 85.6931C8.35193 66.4696 18.5199 48.3596 26.4764 51.8966C27.1449 52.1936 27.4649 51.9546 27.8689 50.8566C35.6489 29.6986 56.0639 9.20565 64.1094 14.4772C65.3019 15.2587 65.3779 15.2167 68.1414 12.2317C76.5474 3.15215 97.3424 -2.76385 102.549 2.44265C103.343 3.23665 103.553 3.21915 106.001 2.15565ZM175.729 179.724C190.563 184.474 191.97 185.253 195.361 190.581C204.915 205.594 212.091 207.957 216.917 197.681C218.04 195.289 218.75 196.888 217.877 199.843C215.662 207.342 207.32 211.43 200.736 208.243C199.243 207.52 196.359 206.889 192.288 206.396C179.585 204.857 176.777 202.735 173.145 191.931C172.128 188.906 170.41 184.81 169.327 182.829C166.045 176.826 166.299 176.703 175.729 179.724ZM176.797 187.604C176.281 186.874 175.858 186.116 175.858 185.92C175.858 185.543 176.464 185.692 179.474 186.805C181.965 187.727 182.063 187.874 181.417 189.729C179.646 194.806 184.619 199.053 190.884 197.814C193.58 197.281 193.916 197.453 194.818 199.825L195.335 201.186L191.722 200.883C184.05 200.241 182.856 199.479 179.869 193.326C178.696 190.909 177.314 188.334 176.797 187.604ZM223.736 182.454C223.059 174.013 210.571 162.901 197.35 158.975C193.155 157.729 192.22 157.983 195.108 159.585C208.758 167.152 218.501 177.209 222.085 187.431C222.808 189.494 224.01 185.871 223.736 182.454ZM228.887 202.134C228.553 205.872 227.954 211.631 227.555 214.931C227.156 218.231 226.612 223.743 226.347 227.181C226.082 230.618 225.513 237.593 225.084 242.681C222.037 278.815 221.268 292.337 222.221 293.056C223.379 293.93 224.06 293.839 225.119 292.669C225.718 292.007 226.204 291.827 226.526 292.148C226.847 292.47 225.996 293.79 224.063 295.971C222.438 297.803 220.619 299.894 220.021 300.617C219.158 301.659 218.803 301.804 218.307 301.318C217.808 300.828 217.857 300.51 218.555 299.739C219.352 298.859 219.442 296.919 219.582 277.603C219.768 251.837 220.802 239.915 225.104 213.931C228.669 192.399 230.175 187.703 228.887 202.134ZM127.854 5.43065C127.414 4.55615 126.171 3.46165 124.873 2.80565C120.842 0.768651 111.885 1.22965 106.31 3.76015L103.012 5.25765L99.7949 2.04015L94.7019 2.32815C84.1099 2.92615 75.9609 6.47465 69.2414 13.4157L64.8744 17.9261L64.0659 16.7721C58.3984 8.68065 36.7374 30.6801 28.8614 52.5266L27.7454 55.6231L26.5074 54.1516C20.5274 47.0451 8.85843 69.5801 8.85843 88.2356C8.85843 93.6276 8.84693 93.6806 7.67593 93.6806C2.58593 93.6806 0.21243 105.253 3.27893 115.118L4.42543 118.806L3.01693 120.276C0.298429 123.114 1.24593 134.398 4.83043 141.866C5.97043 144.241 6.16943 145.099 5.75893 145.867C3.76743 149.588 11.2614 170.381 17.4304 178.253C18.2389 179.284 18.8594 180.694 18.8614 181.503C18.8714 186.686 25.7354 196.565 33.4514 202.502C35.0504 203.733 36.3584 205.049 36.3584 205.428C36.3584 209.918 54.7824 220.302 57.6539 217.431C59.3859 215.699 60.3159 215.847 63.7109 218.399C72.7129 225.166 86.7064 224.541 95.7104 216.97C96.7544 216.092 98.7274 214.955 100.095 214.444C110.498 210.55 117.666 195.903 117.153 179.588C117.003 174.826 116.892 168.681 116.906 165.931C116.947 158.132 115.11 151.707 110.691 144.181C110.287 143.493 109.27 141.468 108.431 139.681C107.592 137.893 105.418 134.631 103.602 132.431C101.785 130.231 99.4939 127.452 98.5109 126.255C96.4119 123.7 81.3359 113.499 78.4899 112.709C71.9399 110.89 69.3229 114.14 72.0329 120.728C73.4874 124.264 77.8064 131.118 78.9734 131.742C79.6229 132.09 79.8584 132.827 79.8584 134.514C79.8584 136.918 81.2419 139.837 82.6344 140.372C83.1889 140.584 83.3574 141.297 83.2674 143.046C82.9829 148.564 83.2789 150.205 84.8174 151.642C85.8564 152.613 86.1464 153.21 85.8249 153.718C85.0509 154.94 85.2744 159.759 86.1499 160.727C86.8774 161.531 86.8539 161.648 85.8574 162.181C84.3034 163.013 82.8824 166.498 82.8694 169.507C82.8589 171.924 82.7644 172.116 81.3364 172.614C78.5059 173.6 76.9039 175.129 76.2109 177.505L75.5504 179.77L74.6409 177.753C72.9379 173.977 69.5649 172.016 65.1724 172.249L62.6154 172.385L62.2329 169.724C61.2909 163.18 57.5959 159.68 53.7829 161.721C52.3789 162.473 52.3419 162.312 53.1379 158.927C54.7549 152.052 53.6174 146.681 50.5439 146.681C49.7909 146.681 49.8159 146.54 50.7474 145.549C54.5569 141.494 53.7384 131.181 49.6069 131.181C48.9914 131.181 49.1689 130.66 50.3869 128.89C53.3734 124.549 54.6504 119.018 53.1299 117.011C52.5099 116.193 52.6254 115.84 54.1784 113.805C56.9939 110.117 58.4469 106.848 58.2829 104.574C58.1534 102.782 58.3009 102.484 59.6769 101.751C62.7309 100.124 67.8584 93.8331 67.8584 91.7136C67.8584 90.8471 68.1714 90.6806 69.7969 90.6806C75.3369 90.6806 80.8584 88.3871 80.8584 86.0861C80.8584 84.9296 80.9639 84.9431 83.0554 86.3626L84.7974 87.5446L83.5349 88.2196C79.3724 90.4476 79.9479 96.0991 85.0284 102.885C86.4889 104.835 90.4119 110.271 93.7464 114.964C107.356 134.12 120.897 148.464 129.108 152.424C135.046 155.287 138.593 150.371 134.066 145.552C130.182 141.416 130.158 141.372 130.849 139.703C131.801 137.404 131.148 135.996 127.323 132.11C118.874 123.526 107.128 105.117 111.68 107.593C113.84 108.769 124.079 120.045 130.018 127.789C136.586 136.353 142.533 142.484 145.976 144.241C151.353 146.984 151.863 149.605 149.098 160.296C140.957 191.776 150.414 218.271 178.693 243.216C185.572 249.284 187.169 249.903 190.067 247.624C190.672 247.148 191.039 246.789 191.304 246.853C191.784 246.968 191.93 248.472 192.557 253.181C193.462 259.977 193.986 263.279 195.378 270.931C195.879 273.681 196.437 277.043 196.618 278.402C196.8 279.761 197.378 282.553 197.903 284.607C198.429 286.661 198.86 289.036 198.861 289.886C198.863 290.735 199.196 292.067 199.602 292.845C200.007 293.622 200.78 296.097 201.319 298.345C206.755 321.008 213.943 332.338 225.487 336.436C228.754 337.596 230.723 339.181 228.897 339.181C225.212 339.181 224.513 343.985 227.733 347.18C232.724 352.132 250.962 355.278 254.464 351.792L255.608 350.653L255.756 219.292C255.858 128.657 255.741 87.3676 255.379 86.1156C254.393 82.7066 245.687 81.7536 240.318 84.4666C239.077 85.0936 238.988 85.0386 238.002 83.0246C236.009 78.9526 225.991 69.7351 222.647 68.8956C221.493 68.6061 221.358 68.3291 221.358 66.2411C221.358 60.3871 211.516 49.1806 206.374 49.1806C205.558 49.1806 205.358 48.8561 205.358 47.5286C205.358 45.4591 203.473 42.5041 199.236 37.9306L195.994 34.4306H192.928C189.899 34.4306 189.861 34.4136 189.86 33.0226C189.857 30.8541 189.147 29.9451 184.974 26.7711C179.474 22.5886 178.141 21.9761 174.483 21.9516C171.582 21.9321 171.358 21.8501 171.358 20.8056C171.358 15.9566 158.23 9.98415 151.727 11.8747C148.358 12.8542 148.323 12.8552 148.66 11.9757C150.373 7.51315 138.992 3.29315 132.312 5.91415C130.381 6.67165 128.758 7.21015 128.705 7.11065C128.652 7.01165 128.269 6.25565 127.854 5.43065ZM94.3584 7.44365C93.9459 7.52465 91.9749 7.85665 89.9789 8.18165C72.5909 11.0147 57.9624 28.2976 43.5574 63.0271C40.9994 69.1951 41.3734 69.3066 46.4834 63.8986C52.0099 58.0486 57.3464 53.9726 63.2779 51.0696L67.6489 48.9306L69.0769 44.9306C74.2549 30.4286 86.8404 13.9841 96.8009 8.70515C98.6194 7.74165 97.0294 6.92015 94.3584 7.44365ZM109.858 7.64815C101.703 10.1377 82.5134 28.9776 74.1634 42.6916C71.2919 47.4071 71.3289 47.5166 75.4499 46.5076C80.7934 45.2001 86.2254 44.9606 89.7949 45.8751C94.4369 47.0641 94.8584 46.9921 94.8584 45.0101C94.8584 37.0516 105.064 22.1017 116.266 13.6502C122.682 8.80965 123.319 8.19515 122.424 7.71565C121.297 7.11265 111.779 7.06165 109.858 7.64815ZM131.696 11.4617C119.314 16.7701 104.055 31.3781 97.6909 44.0166L95.9144 47.5441L101.261 48.9276C104.202 49.6881 107.652 50.7186 108.929 51.2171C111.504 52.2226 111.857 52.1026 111.861 50.2221C111.876 41.9706 127.817 21.7636 139.391 15.3232L143.923 12.8022L142.045 11.6412C139.288 9.93765 135.408 9.87015 131.696 11.4617ZM151.796 17.1636C139.398 20.9141 122.756 35.5591 115.865 48.7841C113.264 53.7751 113.406 54.3126 117.758 55.9451C121.862 57.4851 125.826 59.6546 127.809 61.4451C130.168 63.5771 130.648 63.6056 131.042 61.6376C133.402 49.8381 151.77 28.6061 163.483 24.1386C166.973 22.8071 167.033 22.3546 163.983 20.3661C158.503 16.7931 155.569 16.0221 151.796 17.1636ZM56.8724 21.9706C42.8894 29.9632 31.8784 49.2106 27.4159 73.4606C26.7969 76.8246 26.7424 90.2231 27.3394 92.1806C27.4965 92.6957 27.5692 93.0631 27.6914 93.0804C27.9033 93.1103 28.264 92.0865 29.4714 88.9516C30.7179 85.7146 33.4224 80.8501 36.5724 76.1806L39.1019 72.4306L39.4339 66.6806C39.7709 60.8481 40.6509 57.1786 43.5704 49.4306C45.3329 44.7526 55.0669 27.3011 57.7334 24.0381C60.7889 20.2991 60.5979 19.8412 56.8724 21.9706ZM169.389 28.2186C158.837 31.9636 142.621 47.0766 134.757 60.4946C133.289 63.0003 132.562 64.1626 132.754 65.1457C132.937 66.0846 133.958 66.8599 135.971 68.4856C137.971 70.1016 141.226 72.9601 143.204 74.8381L146.8 78.2526L147.38 76.1001C151.397 61.1801 168.642 41.0811 181.882 35.8866C183.936 35.0808 184.996 34.6926 185.073 34.1612C185.156 33.5944 184.121 32.8646 181.983 31.2911C175.913 26.8226 174.378 26.4481 169.389 28.2186ZM188.353 40.3981C174.089 45.6571 157.709 60.8271 149.924 75.9891L147.687 80.3451L149.022 82.8936C150.518 85.7521 156.094 92.1806 157.076 92.1806C159.873 92.1806 175.57 77.2291 195.245 55.8246C199.535 51.1579 200.803 49.8091 200.643 48.6577C200.574 48.1562 200.234 47.6922 199.755 47.0076C194.893 40.0591 192.708 38.7926 188.353 40.3981ZM77.8649 48.4836C65.9764 51.6781 66.9879 63.2816 80.5749 79.5656L84.5409 84.3196L89.2924 84.0071C95.0869 83.6266 95.3104 83.4456 93.9354 80.2486C91.8279 75.3501 91.3734 71.9941 91.3659 61.2726C91.3559 47.4316 89.2399 45.4271 77.8649 48.4836ZM94.7009 51.4096C92.0364 54.0741 95.0154 69.2671 100.153 79.2151C102.652 84.0541 103.878 84.9341 108.956 85.5356C110.11 85.6722 110.778 85.7871 111.064 85.5092C111.472 85.1146 111.111 83.9278 110.286 80.8856C108.873 75.6721 108.716 63.7006 110.014 60.1806C111.472 56.2276 110.877 54.9966 106.136 52.1596C103.488 50.5746 96.0254 50.0851 94.7009 51.4096ZM64.3599 55.0496C57.5274 56.3241 48.0939 64.5861 43.7909 73.0641L42.1324 76.3306L45.1204 79.0286C52.4494 85.6451 65.4814 89.2501 74.0454 87.0296L76.4819 86.3976L74.1489 83.9141C68.3774 77.7696 65.3119 66.1636 66.9894 56.8056C67.4009 54.5091 67.3694 54.4881 64.3599 55.0496ZM194.557 65.3111C183.451 75.5566 168.338 87.2506 160.233 91.8691C159.162 92.4796 158.417 92.7742 158.19 93.2949C157.749 94.3052 159.255 96.1666 164.108 102.838C166.31 105.864 167.221 107.293 168.438 107.636C169.606 107.965 171.057 107.294 174.202 106.075C194.762 98.1066 216.858 78.5431 216.858 68.3076C216.858 64.6641 209.192 54.6806 206.395 54.6806C206.222 54.6806 200.895 59.4646 194.557 65.3111ZM112.605 60.8056C111.34 72.6826 116.171 86.9321 122.49 89.9601C127.137 92.1871 127.415 92.1766 126.759 89.8056C126.125 87.5116 126.517 79.1501 127.558 72.7661C128.907 64.4911 123.053 57.6806 114.591 57.6806H112.938L112.605 60.8056ZM21.3614 59.7491C10.5154 77.1011 9.39093 96.8556 18.2479 114.431C19.2179 116.356 20.0784 117.706 20.1599 117.431C20.2419 117.156 20.6654 114.801 21.1019 112.198C21.6079 109.18 22.6379 105.738 23.9444 102.698C26.3694 97.0566 26.4149 96.3896 24.6549 92.2901C21.8614 85.7851 20.7184 73.5246 22.0109 63.9306C22.8524 57.6846 22.8124 57.4271 21.3614 59.7491ZM130.983 78.3056C131.267 88.0846 132.211 92.2131 134.814 95.0556C136.779 97.2016 136.959 97.1366 137.981 93.9166C138.462 92.4041 139.38 90.3256 140.023 89.2986C144.051 82.8566 141.065 74.5101 133.258 70.3926C132.395 69.9371 131.824 69.6353 131.458 69.7968C130.744 70.1113 130.805 72.1844 130.983 78.3056ZM219.689 77.9331C213.021 90.8866 188.937 107.263 174.108 108.926C171.603 109.207 170.235 109.358 169.667 110.112C168.983 111.022 169.463 112.808 170.518 116.755C175.394 134.986 186.796 138.265 207.266 127.325C223.379 118.712 232.084 107.434 233.812 92.9306C234.666 85.7566 233.347 83.4286 224.563 76.6056L221.57 74.2801L219.689 77.9331ZM38.8524 79.6821C32.6869 82.8461 27.3804 96.8136 31.5829 98.8176C40.8689 103.246 54.4134 102.236 59.9834 96.6986C63.7454 92.9586 63.6879 92.6806 58.8534 91.2321C53.8004 89.7181 47.5739 85.8881 43.6144 81.8586L40.5959 78.7871L38.8524 79.6821ZM144.936 85.5556C144.486 86.4151 143.224 91.6316 142.337 96.3006C141.772 99.2721 142.008 99.8751 144.261 101.204L146.074 102.274L149.501 98.7081C151.386 96.7466 152.857 94.9816 152.768 94.7861C152.239 93.6101 146.045 84.7021 145.751 84.6926C145.554 84.6861 145.187 85.0741 144.936 85.5556ZM244.208 88.6636C241.671 89.1546 241.374 89.5391 240.877 92.9836C238.314 110.747 217.38 132.24 193.91 141.206C179.786 146.602 174.005 145.583 167.146 136.49C146.092 108.578 121.278 93.9361 92.3584 92.3601C80.2549 91.7006 80.5369 92.5421 102.158 121.622C109.357 131.304 115.522 138.101 122.527 144.079C132.571 152.651 132.94 152.12 123.686 142.411C111.062 129.166 97.3584 110.595 97.3584 106.733C97.3584 106.2 97.1189 105.684 96.8259 105.587C96.5334 105.489 96.1689 104.476 96.0154 103.335L95.7374 101.26L97.9229 100.935C106.618 99.6416 117.589 106.871 128.267 120.931C139.398 135.586 144.341 140.855 148.232 142.212C154.114 144.262 155.55 150.865 152.574 162.181C145.556 188.862 151.784 211.479 172.093 233.068C176.179 237.411 185.436 245.681 186.212 245.681C186.67 245.681 189.933 234.873 190.628 231.056C191.01 228.958 191.71 228.599 192.089 230.306C192.565 232.448 195.773 251.949 196.346 256.181C196.933 260.521 197.073 261.356 198.809 270.931C199.358 273.956 199.958 277.781 200.143 279.431C200.328 281.081 200.778 283.163 201.144 284.058C201.51 284.953 201.962 287.09 202.148 288.808C202.335 290.526 202.785 292.493 203.149 293.181C203.513 293.868 204.15 296.011 204.565 297.942C209.15 319.305 216.665 331.061 227.858 334.386C240.64 338.183 242.117 322.4 229.539 316.431C224.928 314.243 224.552 316.892 229.006 320.181L231.376 321.931L229.4 322.083C222.64 322.603 213.772 311.168 216.5 305.447C218.048 302.201 221.836 302.113 236.787 304.976C238.81 305.364 242.804 305.681 245.662 305.681H250.858V88.1806L248.483 88.2381C247.177 88.2696 245.253 88.4611 244.208 88.6636ZM153.508 98.0556C153.332 98.5371 152.439 100.116 151.523 101.565C150.645 102.955 150.078 103.674 150.14 104.334C150.23 105.276 151.607 106.096 155.205 108.57C158.371 110.748 159.985 111.889 160.381 111.561C160.801 111.213 159.85 109.213 157.929 105.044C156.24 101.379 154.858 98.1111 154.858 97.7806C154.858 96.8646 153.869 97.0661 153.508 98.0556ZM6.29293 100.303C2.99293 106.469 7.85592 123.395 15.7049 133.062C18.0034 135.892 18.1614 135.661 18.4899 128.996C18.6449 125.851 19.0279 122.798 19.3414 122.212C19.8459 121.27 19.5919 120.794 17.1504 118.096C14.0514 114.671 10.5479 108.244 8.81592 102.806C7.57492 98.9086 7.22493 98.5616 6.29293 100.303ZM27.1974 101.859C23.2959 106.974 21.3979 114.64 22.7954 119.637C25.1089 127.909 46.0159 120.727 52.2884 109.505C53.2697 107.75 53.7877 106.922 53.5673 106.601C53.3491 106.283 52.4067 106.463 50.4729 106.733C44.5674 107.556 31.5069 103.753 29.5909 100.652C29.0884 99.8391 28.5184 100.126 27.1974 101.859ZM97.8584 105.452C97.8584 106.486 108.47 123.525 110.756 126.16C117.921 134.424 121.899 137.907 125.357 138.95C126.286 139.23 125.54 138.202 122.444 134.931C119.704 132.036 116.068 127.187 111.796 120.733C105.189 110.749 97.8584 102.712 97.8584 105.452ZM74.6149 118.806C76.0354 123.744 80.5459 130.118 81.8094 128.975C83.2374 127.683 83.3584 127.969 83.3584 132.651C83.3584 137.607 83.7799 138.357 85.4689 136.404C86.8599 134.794 90.3569 132.681 91.6289 132.681C92.3854 132.681 92.2224 133.035 90.7649 134.556C87.5599 137.901 86.1569 142.315 86.7184 147.287L86.9844 149.643L90.1854 147.945C94.1114 145.861 98.1044 144.983 102.17 145.31L105.253 145.557L104.816 144.035C104.266 142.117 102.696 139.738 99.2779 135.647C97.8004 133.878 95.9779 131.604 95.2284 130.594C94.0159 128.96 82.1924 120.672 77.9264 118.466C75.6134 117.27 74.2139 117.413 74.6149 118.806ZM45.6084 122.242C38.9619 125.327 29.0704 125.868 24.3114 123.406C21.0224 121.706 18.7524 127.428 20.3844 133.305C21.6559 137.883 31.4859 138.432 38.8114 134.336C46.7744 129.883 52.9954 118.813 45.6084 122.242ZM5.02393 125.47C3.23043 130.144 6.94993 141.137 12.9519 148.901C17.8694 155.262 19.2184 156.093 18.2514 152.167C17.9484 150.937 17.6794 147.015 17.6544 143.451L17.6084 136.971L15.8584 136.479C13.4979 135.816 8.96142 131.122 7.21793 127.539C5.72493 124.47 5.49193 124.25 5.02393 125.47ZM45.1554 137.905C41.3794 140.992 31.0269 141.944 25.1084 139.748C22.6761 138.846 21.6204 138.441 20.9742 138.791C20.4614 139.069 20.2064 139.823 19.7259 141.181C18.5099 144.615 18.7639 149.584 20.3754 153.873L21.4809 156.816L24.8909 156.53C31.0354 156.014 39.4814 151.592 45.2334 145.878L48.3584 142.773V139.727C48.3584 136.222 47.6834 135.838 45.1554 137.905ZM98.8279 147.363C94.1814 148.616 88.8654 154.181 88.8604 157.796C88.8579 159.357 89.2524 159.501 94.4564 159.842C98.6429 160.116 102.738 161.971 107.741 165.858C109.739 167.411 111.511 168.681 111.68 168.681C112.768 168.681 111.434 157.735 109.914 154.181C106.581 146.391 105.317 145.613 98.8279 147.363ZM8.85843 151.296C8.85843 154.508 16.7399 172.676 19.8279 176.582C23.6964 181.477 25.5859 181.937 23.2609 177.419C20.3744 171.809 19.2124 167.794 18.9704 162.596C18.7564 158.002 18.6859 157.746 17.5529 157.461C16.8969 157.297 14.6724 155.533 12.6094 153.543C9.06443 150.122 8.85843 149.998 8.85843 151.296ZM47.2439 153.629C42.7934 157.536 36.6969 159.422 28.4954 159.427L22.3829 159.431L22.0504 160.931C20.7314 166.877 22.6899 174.057 27.0299 179.187L28.4514 180.868L31.2144 180.288C39.8059 178.486 47.1269 168.729 48.8789 156.746C49.5919 151.87 49.4834 151.663 47.2439 153.629ZM89.1089 166.214C85.5724 167.268 85.2874 170.762 88.5754 172.756C96.7754 177.729 102.051 200.265 97.6019 211.311C96.4514 214.167 104.47 207.388 107.357 203.063C113.327 194.123 114.977 174.523 110.119 170.257C106.071 166.703 94.7659 164.527 89.1089 166.214ZM54.0814 168.741C51.8324 173.729 44.7559 178.559 35.4239 181.475L29.7394 183.252L30.0159 184.957C30.8349 190.005 41.4754 201.09 45.0174 200.586C47.6874 200.206 55.5509 187.911 57.1749 181.576C59.1399 173.912 56.5654 163.232 54.0814 168.741ZM64.8584 180.738C64.8584 182.599 64.6624 184.243 64.4229 184.391C64.1834 184.539 63.8569 185.313 63.6974 186.11C63.0389 189.402 56.3434 196.32 49.1084 201.184C45.1779 203.826 45.2649 204.708 49.8409 208.597C59.4019 216.723 67.1064 213.702 71.1904 200.226C72.1654 197.01 72.1054 186.008 71.1084 185.181C70.6484 184.799 70.3584 183.702 70.3584 182.346C70.3584 179.772 68.8129 177.934 66.3444 177.572L64.8584 177.354V180.738ZM80.3224 178.717C79.3854 179.654 79.3259 180.072 79.6974 183.092C81.0539 194.115 74.6384 208.768 65.8304 214.762C64.3314 215.782 64.9104 216.409 69.3584 218.585C76.6439 222.149 91.7464 218.661 94.1729 212.853C98.7679 201.856 86.7654 172.274 80.3224 178.717ZM22.3584 183.748C22.3584 187.356 33.6894 200.648 37.8584 201.931C38.9009 202.251 38.6889 201.868 36.5809 199.623C33.3549 196.187 30.2799 191.641 28.0924 187.077C26.4744 183.701 22.3584 181.312 22.3584 183.748ZM39.6604 205.306C39.9989 206.088 45.9839 211.112 48.0619 212.358C52.8884 215.253 52.8409 214.998 47.6149 209.968C42.5074 205.052 38.5459 202.73 39.6604 205.306ZM226.363 308.937C226.708 309.353 228.432 310.381 230.193 311.221C233.762 312.925 238.201 316.839 242.655 322.211C245.149 325.22 249.086 328.181 250.592 328.181C250.738 328.181 250.858 325.143 250.858 321.431V314.681H249.652C248.988 314.681 245.557 313.576 242.027 312.227C233.375 308.919 224.865 307.131 226.363 308.937ZM246.201 342.471C243.982 343.694 238.5 344.663 233.749 344.672C223.615 344.692 233.625 349.335 245.255 350.009L250.901 350.336L250.608 341.931L249.108 341.813C248.283 341.749 246.975 342.045 246.201 342.471Z" fill="black"/>
</svg>
