<svg width="1982" height="869" viewBox="0 0 1982 869" fill="none" xmlns="http://www.w3.org/2000/svg">
<path fill-rule="evenodd" clip-rule="evenodd" d="M1499.6 2.29358C1491.49 4.52387 1482.64 10.0703 1478.81 15.3238L1475.19 20.2883L1464.01 16.355C1440.16 7.96892 1396.1 22.7822 1396.1 39.1833C1396.1 41.396 1394.96 41.8101 1391.7 40.7769C1366.51 32.7619 1308.22 57.0413 1308.22 75.5496C1308.22 77.4128 1304.9 78.6216 1297.75 79.3599C1278.35 81.3617 1238.97 107.906 1235.54 121.302C1234.08 126.952 1233.15 127.649 1227.03 127.649C1213.25 127.649 1183.15 156.428 1176.06 176.382C1173.21 184.426 1171.62 186.014 1161.75 190.648C1140.44 200.659 1110.99 239.578 1110.99 257.723C1110.99 262.068 1110.06 264.357 1108.29 264.357C1100.6 264.357 1056.05 305.071 1047.48 319.933C1045.65 323.103 1044.45 323.191 1033.81 320.945C1007.22 315.338 988.423 318.376 981.164 329.458C975.802 337.641 976.751 1368.08 982.127 1375.63C989.868 1386.5 1024.98 1388.16 1059.89 1379.31C1097.26 1369.83 1117.4 1345.2 1102.38 1327.33L1097.66 1321.73L1109.89 1317.35C1149.89 1303 1181.42 1251.59 1200.93 1168.9C1203.04 1159.95 1205.69 1150.89 1206.82 1148.78C1207.95 1146.67 1210.05 1138.17 1211.47 1129.91C1212.9 1121.64 1215.43 1108.29 1217.12 1100.23C1222.33 1075.24 1230.17 1031.03 1232.06 1015.98C1237.69 971.146 1236.35 974.765 1246.75 976.324C1260.48 978.384 1263.92 976.497 1290.24 952.49C1402.35 850.234 1436.39 754.487 1405.72 627.61C1394.81 582.458 1395.06 581.206 1418.29 566.346C1438.6 553.35 1460.21 529.315 1501.91 473.325C1512.14 459.582 1534.75 435.723 1534.75 438.664C1534.75 444.378 1497.52 494.652 1479.99 512.598C1465.28 527.663 1461.18 536.03 1464.39 544.455C1465.49 547.365 1466.4 550.095 1466.4 550.521C1466.4 550.948 1461.57 556.714 1455.66 563.334C1443.31 577.179 1441.28 587.303 1448.91 597.009C1463.31 615.316 1490.75 601.276 1543.38 548.663C1549.74 542.301 1554.27 538.785 1553.44 540.851C1552.6 542.918 1551 547.245 1549.87 550.468C1548.74 553.69 1546.14 558.731 1544.1 561.67C1529.11 583.196 1520.79 611.877 1519.87 645.187C1519.53 657.54 1518.7 681.87 1518.01 699.253C1515.43 764.844 1549.22 832.77 1590.04 844.041C1593.61 845.027 1600.87 849.164 1606.16 853.232C1644.02 882.321 1702.77 885.254 1734.4 859.635C1746.76 849.632 1746.98 849.58 1754.12 855.024C1768.96 866.35 1832.24 833.288 1843.65 808.243C1844.77 805.784 1853.44 797.109 1862.92 788.961C1889.03 766.516 1913.52 730.022 1913.57 713.488C1913.58 708.477 1915.77 703.694 1921.6 695.933C1945.93 663.557 1968.9 596.724 1966.23 566.092C1966.04 563.943 1968.24 556.63 1971.12 549.839C1982.97 521.841 1985.71 480.067 1976.51 467.629C1972.08 461.645 1972.07 461.563 1975.46 450.382C1985.78 416.314 1978.46 371.933 1960.94 362.348C1953.98 358.537 1952.82 357.079 1953.78 353.274C1957.54 338.295 1947.62 287.15 1935.16 257.289C1914.4 207.543 1899.3 193.021 1878.25 202.585C1875.83 203.686 1874.35 201.919 1871.61 194.632C1841.78 115.201 1762.81 36.621 1732.67 56.3714L1727.59 59.6993L1713.68 45.9347C1679.49 12.1288 1608.81 -8.80712 1584.53 7.67793L1577.13 12.6971L1565.21 7.29319C1552.94 1.72526 1512.78 -1.33505 1499.6 2.29358ZM1566.46 14.1598L1579.62 20.4992L1584.23 15.1422C1601.62 -5.0828 1675.8 16.4019 1710.92 51.8386L1727.94 69.013L1732.8 64.154C1758.94 38.0115 1848.1 131.702 1870.74 209.092L1873.14 217.298L1878.52 211.533C1902.86 185.482 1946.78 269.755 1947.54 343.941L1947.76 365.91L1952.64 365.955C1971.77 366.127 1981.21 417.728 1968.51 452.722L1964.3 464.344L1969.7 468.648C1980.78 477.477 1977.47 523.413 1963.66 552.493C1957.73 564.98 1957.35 566.754 1959.91 570.138C1968.23 581.182 1939.08 662.781 1915.7 693.877C1910.25 701.128 1907.73 706.454 1907.73 710.719C1907.73 730.401 1878.9 770.855 1849.77 792.043C1845.29 795.306 1840.6 800.439 1839.35 803.444C1829.88 826.306 1768.19 860.793 1757.36 849.273C1750.88 842.375 1745.98 843.148 1733.19 853.077C1699.35 879.36 1647.19 877.247 1608.95 848.043C1604.12 844.353 1596.06 839.776 1591.04 837.873C1552.02 823.091 1523.87 768.183 1524.27 707.682C1524.84 623.236 1526.71 608.235 1539.93 582.196C1543.88 574.413 1551.34 559.696 1556.51 549.491C1561.74 539.176 1571.79 523.874 1579.14 515.027C1586.4 506.278 1594.68 496.109 1597.53 492.429C1618.32 465.553 1688.39 431.397 1700.12 442.418C1710.72 452.384 1691.2 504.807 1673.32 514.379C1670.25 516.023 1669.49 518.498 1669.49 526.894C1669.49 535.75 1668.62 538.295 1663.82 543.431C1658.51 549.113 1658.11 550.698 1657.47 568.22C1656.84 585.793 1656.47 587.221 1651.46 591.523C1646.24 596.011 1646.18 596.336 1648.34 607.112C1650.2 616.352 1650.06 619.162 1647.45 624.626C1644.51 630.794 1644.56 631.323 1648.33 634.739C1654.97 640.744 1658.33 649.427 1658.55 661.08L1658.75 672.156L1667.92 676.038C1677.18 679.956 1685.09 689.35 1685.1 696.453C1685.12 702.323 1688.29 700.202 1691.42 692.236C1696.16 680.169 1707.87 673.505 1724.32 673.505H1737.46L1738.74 663.901C1742.1 638.529 1761.17 620.478 1772.56 631.874C1776.61 635.918 1776.91 632.612 1773.93 617.049C1768.74 589.893 1771.31 577.536 1782.91 573.855C1786.73 572.638 1786.68 572.357 1781.39 565.438C1770.82 551.607 1772.83 519.695 1784.63 513.975L1790.08 511.336L1782.61 498.976C1772.83 482.795 1769.27 466.763 1773.74 458.969C1776.86 453.536 1776.78 453.184 1770.32 444.322C1758.46 428.056 1752.91 415.014 1754.26 406.6C1755.23 400.542 1754.86 399.112 1752.33 399.112C1743.45 399.112 1714.88 364.209 1717.72 356.821C1718.47 354.862 1716.5 354.194 1709.97 354.194C1685.75 354.194 1665.58 345.163 1665.58 334.319C1665.58 330.96 1664.93 331.114 1658.95 335.883L1652.32 341.172L1658.79 347.269C1670.69 358.5 1669.49 374.001 1655.15 394.236C1651.76 399.023 1642.02 412.842 1633.5 424.948C1544.31 551.743 1468.51 621.941 1452.69 592.381C1448.02 583.649 1450.37 576.923 1462.5 564.285L1474.22 552.073L1471.15 545.914C1466.77 537.139 1468.53 533.7 1487.98 513.037C1504.57 495.421 1550.61 429.712 1551.13 422.931C1551.87 413.074 1515.86 443.933 1498.03 468.443C1457.18 524.552 1419.69 565.115 1408.67 565.115C1393.14 565.115 1389.94 587.438 1399.77 627.21C1431.19 754.284 1393.83 855.556 1279.12 954.292C1257.11 973.24 1248.3 975.845 1237.94 966.463C1233.07 962.061 1232.79 963.241 1226.34 1014.9C1224.39 1030.55 1215.99 1077.39 1210.17 1105.11C1207.91 1115.85 1205.39 1129.3 1204.57 1135C1203.75 1140.69 1202.24 1146.4 1201.2 1147.69C1200.17 1148.98 1197.94 1156.2 1196.24 1163.74C1177 1249.44 1146.11 1298.69 1101.94 1314.09C1090.3 1318.15 1082.54 1324.82 1089.46 1324.82C1100.09 1324.82 1104.18 1342.69 1096 1353.42C1078.9 1375.83 995.578 1389.57 985.939 1371.55C984.749 1369.33 984.06 1178.36 984.06 851.265V334.487L988.577 329.969C996.323 322.222 1037.33 322.714 1045.27 330.649C1048.4 333.78 1050.45 333.127 1050.45 328.999C1050.45 318.833 1094.68 275.612 1110.84 269.974C1115.82 268.242 1116.47 266.976 1117.25 257.645C1119.24 233.586 1156.02 192.097 1175.36 192.097C1178.38 192.097 1179.36 190.804 1179.42 186.727C1179.7 168.156 1213.12 133.508 1230.74 133.508C1239.29 133.508 1239.39 133.432 1240.61 125.776C1243.01 110.811 1286.14 83.0002 1303.32 85.3535C1311.3 86.4492 1311.72 86.2539 1312.79 80.8851C1316.97 59.9981 1364.12 38.8962 1389.44 46.5792C1402.05 50.4051 1401.96 50.4246 1401.96 43.8451C1401.96 25.7918 1439.74 13.3415 1465.23 22.9931C1472.65 25.8015 1478.91 27.8678 1479.14 27.5846C1479.38 27.3014 1480.92 24.4247 1482.56 21.1925C1490.98 4.61371 1538.39 0.639408 1566.46 14.1598ZM1503.99 29.3403C1499.33 31.2191 1501.68 33.5822 1526.88 52.4206C1567.9 83.0744 1602.33 130.649 1610.39 167.804C1613.93 184.113 1613.4 183.821 1631.13 179.217C1645.25 175.552 1668.37 176.784 1689.47 182.323C1705.36 186.496 1705.26 187.199 1691.95 165.996C1633.72 73.249 1548.58 11.3476 1503.99 29.3403ZM1602.16 29.9106C1598.5 31.2659 1598.55 31.471 1603.14 33.8575C1642.65 54.4087 1692.25 118.74 1711.91 174.921L1717.33 190.422L1736.21 200.145C1760.9 212.865 1775.59 224.224 1799.18 248.829C1824.08 274.81 1823.85 271.851 1796.14 210.512C1759.65 129.715 1710.7 64.2927 1672.78 45.6398C1650.16 34.5079 1612.44 26.1081 1602.16 29.9106ZM1429.78 43.9857C1419.15 49.1435 1419.33 50.3289 1431.74 56.6038C1477.94 79.9751 1538.49 153.018 1543.87 191.88C1545.57 204.18 1545.61 204.223 1553.33 200.997C1557.16 199.397 1570.58 195.333 1583.16 191.964C1595.73 188.596 1606.3 185.578 1606.64 185.26C1609.93 182.159 1565.59 115.714 1551.06 101.985C1506.57 59.9512 1451.33 33.5333 1429.78 43.9857ZM1351.08 73.6396C1328.62 86.9413 1328.54 87.2694 1346.02 95.2375C1383.68 112.398 1421.83 149.741 1450.53 197.538C1458.85 211.395 1462.43 219.376 1472.14 245.712C1473.47 249.308 1473.81 249.22 1478.18 244.197C1484.48 236.947 1498.44 228.233 1513.47 222.165C1520.34 219.392 1528.81 215.375 1532.3 213.24L1538.65 209.356L1527.9 188.344C1488.42 111.143 1392.66 49.0224 1351.08 73.6396ZM1747.6 81.7816C1747.6 82.3342 1751.34 87.3866 1755.91 93.0112C1790.51 135.607 1827.88 223.241 1828.56 263.381L1828.85 280.958L1840.68 299.511C1853.47 319.558 1866.7 344.908 1870.51 356.635C1871.81 360.664 1873.59 363.959 1874.45 363.959C1877.05 363.959 1878.78 309.393 1876.55 297.558C1875.44 291.65 1873.73 281.891 1872.77 275.872C1862.98 215.088 1831.44 150.636 1792.53 111.924C1773.69 93.1752 1747.6 75.6727 1747.6 81.7816ZM1289.49 109.543C1257.96 127.618 1255.32 133.211 1274.54 141.252C1324.04 161.967 1391.05 240.597 1405.76 295.224C1408.58 305.686 1408.22 305.78 1424.71 290.226C1432.4 282.981 1444.43 272.657 1451.45 267.287C1466.4 255.854 1466.45 255.637 1457.8 239.896C1417.38 166.359 1320.83 91.5816 1289.49 109.543ZM1213.51 168.622C1200.3 184.065 1197.32 190.049 1199.99 195.781C1206.76 210.309 1324.33 328.329 1356.2 352.583L1368.2 361.711L1379.07 350.63C1404.26 324.97 1406.88 317.037 1396.81 297.021C1364.9 233.596 1280.24 159.695 1234.99 155.774L1225.23 154.928L1213.51 168.622ZM1635 189.375C1625.2 194.203 1623.82 200.247 1625.27 231.774C1626.78 264.734 1624.4 288.494 1617.73 306.987C1610.3 327.575 1611.62 328.731 1642.5 328.788C1672.92 328.844 1726 223.86 1705.27 204.647C1687.77 188.428 1652.47 180.754 1635 189.375ZM1568.66 203.766C1562.26 206.961 1554.97 212.367 1552.45 215.781L1547.86 221.987L1551.55 231.944C1558.85 251.608 1556.69 300.702 1547.16 331.545C1545.67 336.367 1561.35 334.947 1574.66 329.057C1596.37 319.456 1626.74 217.619 1612.88 200.919C1608.19 195.261 1582.35 196.925 1568.66 203.766ZM1164.23 221.171C1127 250.599 1127.63 277.786 1166.59 323.632C1195.37 357.495 1298.89 422.548 1324 422.548C1336.56 422.548 1366.61 363.643 1356.55 358.737C1332.91 347.202 1265.7 295.335 1221.76 254.704C1171.32 208.057 1176.79 211.244 1164.23 221.171ZM1721.6 236.457C1723.41 272.65 1713.9 303.553 1693.98 326.19C1683.11 338.547 1682.97 337.432 1695.78 340.506C1731.86 349.161 1809.33 321.712 1815.23 298.179C1820.49 277.249 1760.91 220.439 1727.68 214.689L1720.45 213.437L1721.6 236.457ZM1521.08 227.124C1488.89 236.953 1479.35 254.292 1484.94 292.843C1487.29 309.074 1488.11 323.443 1487.49 337.443C1486.42 361.318 1485.65 360.715 1504.48 350.714C1526.26 339.144 1539.65 305.887 1542.03 257.457C1543.65 224.61 1541.15 220.993 1521.08 227.124ZM1894.88 236.039C1900.31 288.205 1897.27 331.17 1886.08 360.053C1878.92 378.538 1878.9 378.059 1888.06 399.618C1895.58 417.324 1901.87 441.957 1901.87 453.714C1901.87 463.484 1904.77 460.6 1913.21 442.437C1944.65 374.759 1940.79 304.952 1902.01 239.945L1893.86 226.274L1894.88 236.039ZM1457.42 277.719C1426.55 300.218 1420.8 319.822 1435.9 351.106C1440.61 360.862 1445.22 370.837 1446.15 373.275C1453.9 393.566 1469.72 349.28 1471.64 301.952C1473.02 267.884 1472.39 266.808 1457.42 277.719ZM1103.18 300.761C1063.61 333.407 1059.12 351.673 1078.15 402.536C1104.06 471.804 1226.02 542.295 1276.46 517.158C1295.57 507.635 1321.89 456.876 1321.89 429.553C1321.89 429.02 1318.6 428.071 1314.57 427.442C1291.81 423.898 1282.82 421.636 1266.64 415.389C1199.97 389.637 1137.69 339.976 1121.59 299.716C1117.6 289.748 1116.45 289.814 1103.18 300.761ZM1810.09 320.911C1794.39 336.717 1767.86 352.681 1749.4 357.436C1733.09 361.637 1733.07 361.854 1747.31 376.933C1767.93 398.767 1822.23 403.229 1858.41 386.063L1865.25 382.815L1864.26 370.564C1862.5 348.546 1845.3 319.005 1829.94 311.59L1822.78 308.137L1810.09 320.911ZM1401.75 345.894C1396.19 354.217 1389.88 362.982 1387.73 365.369L1383.8 369.708L1396.96 384.41C1411.86 401.056 1411.55 400.931 1420.64 393.998C1428.74 387.816 1428.88 385.502 1422.7 358.971C1415.05 326.147 1414.96 326.087 1401.75 345.894ZM1002.94 345.732C1002.22 346.447 1001.64 537.594 1001.64 770.504V1193.97H1021.5C1032.42 1193.97 1048.46 1192.72 1057.14 1191.19C1116.37 1180.74 1127.32 1180.51 1134.42 1189.52C1149.98 1209.31 1115.3 1258.74 1086.16 1258.31L1078.77 1258.2L1084.59 1253.92C1106.1 1238.07 1105.54 1225.77 1083.81 1236.86C1045.88 1256.21 1038.96 1302.46 1073.16 1308.13C1118.35 1315.61 1164.51 1255.05 1183.24 1163.7C1184.56 1157.26 1186.86 1149.61 1188.35 1146.71C1189.84 1143.81 1191.06 1139.31 1191.06 1136.71C1191.06 1134.11 1193.25 1123.32 1195.94 1112.73C1198.62 1102.15 1200.82 1091.17 1200.82 1088.34C1200.82 1085.51 1202.92 1072.74 1205.5 1059.98C1208.07 1047.2 1210.75 1031.92 1211.44 1026.02C1214.82 997.162 1231.93 896.574 1233.77 894.676C1234.99 893.422 1238.86 906.643 1250.35 951.316C1253.17 962.286 1253.78 962.104 1274.12 944.287C1382.03 849.763 1416.92 753.292 1386.26 634.174C1378.33 603.341 1376.73 586.799 1380.99 579.583C1388.44 566.965 1395.97 559.176 1404.71 555.03C1418.53 548.478 1438.37 527.866 1467.38 489.926C1523.92 415.972 1562.54 388.037 1599.57 394.294C1610.71 396.177 1605.17 423.818 1589.12 446.427C1569.66 473.851 1521.87 532.073 1499.46 555.673C1465.37 591.564 1463.82 596.062 1494.23 570.789C1558.86 517.084 1664.93 375.765 1649.86 363.449C1639.73 355.174 1570.48 363.67 1524.98 378.77C1461.09 399.974 1368.22 473.814 1326.45 536.61C1306.59 566.465 1278.68 571.343 1230.11 553.448C1134.83 518.342 1051.07 433.413 1040.63 361.311C1038.66 347.706 1011.99 336.68 1002.94 345.732ZM1688.04 357.084C1694.48 358.641 1702.13 359.946 1705.03 359.983C1709.32 360.039 1711.04 361.621 1714.13 368.353C1717.95 376.663 1741.89 403.018 1745.62 403.018C1746.71 403.018 1747.6 406.124 1747.6 409.918C1747.6 417.332 1754.38 432.305 1763.56 445.15C1768.5 452.063 1768.97 453.823 1767.16 458.594C1764.23 466.299 1767.62 483.247 1774.97 497.63C1780.25 507.946 1780.55 509.436 1777.74 511.012C1768.73 516.053 1765.53 550.478 1772.94 562.631L1776.78 568.937L1771.91 574.198C1764.6 582.083 1763.31 598.79 1768.41 619.31C1769.4 623.292 1768.8 623.708 1761.97 623.747C1748.18 623.828 1738.64 636.239 1733.09 661.299C1732.06 665.949 1730.95 666.67 1724.84 666.67C1713.96 666.67 1703.39 670.57 1695.14 677.636L1687.63 684.071L1682.23 678.44C1679.27 675.345 1674.48 671.835 1671.59 670.64C1667.05 668.758 1666.05 666.748 1664.15 655.596C1662.81 647.826 1660 639.994 1657.03 635.825C1653.25 630.507 1652.57 628.089 1654.06 625.294C1655.19 623.187 1655.44 616.73 1654.67 609.907C1653.48 599.378 1653.8 597.658 1657.75 593.457C1661.48 589.486 1662.3 585.975 1663.13 570.593C1663.85 557.081 1664.98 551.419 1667.53 548.515C1673.2 542.041 1675.35 536.487 1675.35 528.233C1675.35 523.327 1676.43 519.783 1678.25 518.767C1687.77 513.436 1710.5 468.912 1710.5 455.579C1710.5 422.585 1685.12 423.935 1631.07 459.809C1616.63 469.392 1604.45 477.231 1604.01 477.231C1603.18 477.231 1634.76 432.44 1652.99 407.768C1668.3 387.037 1672.19 378.505 1672.28 365.424C1672.36 352.888 1671.83 353.171 1688.04 357.084ZM1377.56 382.512C1376.82 384.66 1370.98 397.724 1364.58 411.541C1349.97 443.07 1350.94 443.033 1394.6 410.428C1397.73 408.088 1397.44 407.086 1390.69 396.954C1386.69 390.935 1382.39 384.344 1381.16 382.307C1378.97 378.702 1378.87 378.708 1377.56 382.512ZM1952.04 388.859C1951.59 389.664 1949.23 396.476 1946.8 403.995C1940.13 424.673 1927.73 447.206 1916.11 459.754L1905.69 471.007L1908.66 488.047C1910.3 497.417 1911.63 510.407 1911.63 516.912V528.739L1917.66 523.003C1931.97 509.389 1952.34 469.291 1957.64 444.3C1963.24 417.89 1959.05 376.485 1952.04 388.859ZM1864.7 394.099C1850.36 408.137 1809.33 419.933 1785.19 416.957C1771.16 415.228 1770.88 415.666 1778.2 428.235C1805.47 475.058 1887.73 500.528 1893.28 463.865C1897.96 432.852 1877.11 381.948 1864.7 394.099ZM1592.13 415.057C1577.85 425.769 1567.89 437.867 1545.02 472.279C1528.24 497.527 1515.07 514.857 1503.65 526.735C1487.14 543.914 1486.76 546.218 1501.71 538.621C1522.2 528.21 1555.83 488.531 1580.96 445.121C1601.12 410.303 1602.15 407.536 1592.13 415.057ZM1672.42 465.381C1628.79 490.797 1596.28 520.648 1577.62 552.421C1568.63 567.732 1568.88 568.033 1590.95 568.115C1609.16 568.181 1610.78 568.543 1625.61 575.845C1634.17 580.057 1641.94 583.872 1642.89 584.321C1652.07 588.692 1639.78 538.256 1628.56 525.468C1623.02 519.164 1622.7 518.244 1626.03 518.244C1630.13 518.244 1642.71 526.724 1648.8 533.583C1654.92 540.478 1655.82 538.635 1655.82 519.22C1655.82 502.392 1657.35 497.193 1660.7 502.62C1665.57 510.506 1690.97 475.853 1690.97 461.317C1690.97 457.887 1681.85 459.887 1672.42 465.381ZM1791.33 477.643C1799.02 516.111 1865.36 550.556 1894.72 531.325C1905.25 524.425 1907.46 496.435 1898.48 483.815L1894.14 477.722L1885.39 482.153C1867.55 491.187 1829.18 489.5 1806.18 478.671C1788.86 470.515 1789.92 470.587 1791.33 477.643ZM1959.22 489.121C1958.01 490.639 1955.2 495.498 1952.97 499.921C1946.62 512.539 1930.23 529.251 1920.59 532.928L1912.13 536.162L1912.37 559.914C1912.5 572.98 1911.86 588.363 1910.94 594.101C1906.2 623.65 1952.13 560.227 1959.54 526.979C1963.07 511.19 1962.84 484.598 1959.22 489.121ZM1793.82 535.17C1774.75 554.233 1846.44 611.987 1889.17 611.987C1906.84 611.987 1915.54 557.93 1900.75 540.025C1900.44 539.654 1894.2 541.791 1886.87 544.773C1862.62 554.651 1824.6 551.786 1805.2 538.619C1797.83 533.618 1795.94 533.045 1793.82 535.17ZM1566.41 577.362C1554.92 589.596 1544.51 621.877 1544.51 645.283C1544.51 661.637 1543.21 661.512 1562.27 647.001C1582.08 631.921 1596.03 625.513 1611.51 624.388C1635.73 622.626 1636.31 622.404 1635.03 615.328C1630 587.434 1581.93 560.838 1566.41 577.362ZM1935.01 597.406C1928.06 604.425 1919.1 611.674 1915.1 613.518L1907.83 616.869L1907.78 633.961C1907.72 652.839 1901.7 674.076 1890.92 693.367C1880.56 711.916 1891.65 707.257 1907.14 686.547C1918.68 671.136 1953.59 584.645 1948.28 584.645C1947.93 584.645 1941.96 590.387 1935.01 597.406ZM1790.56 603.659C1790.56 647.144 1824.98 696.962 1860.12 704.333L1871.11 706.637L1876.93 699.835C1891.48 682.846 1899.46 657.212 1896.76 636.147L1895.03 622.728L1876.48 623.378C1845.61 624.46 1815.07 615.525 1797.79 600.355L1790.56 594.006V603.659ZM1228.16 618.789C1228.16 619.308 1223.68 622.001 1218.21 624.773C1175.76 646.289 1130.76 690.188 1118.61 721.953C1113.65 734.926 1112.12 735.582 1108.99 726.089C1101.01 701.917 1121.4 671.14 1162.48 645.361C1192.6 626.456 1228.16 612.069 1228.16 618.789ZM1583.57 650.687C1535.97 663.143 1524.95 722.96 1558.59 786.241C1568.48 804.845 1604.12 837.534 1600.37 824.566C1584.96 771.162 1604.42 691.545 1637.06 674.439C1647.04 669.209 1648.06 664.219 1641.28 653.86C1636.34 646.322 1606.51 644.681 1583.57 650.687ZM1759.97 660.323C1752.75 679.034 1756.02 710.836 1767.52 733.735C1774.69 748 1800.65 781.903 1805.31 783.071C1819.09 786.532 1860.01 744.476 1865.43 721.269C1866.56 716.453 1865.89 716.072 1843.71 708.794C1805.75 696.334 1782.86 680.956 1771.58 660.323C1768.79 655.22 1765.84 651.046 1765.03 651.046C1764.21 651.046 1761.93 655.22 1759.97 660.323ZM1327.75 698.189C1327.75 700.488 1325.26 706.421 1322.22 711.372C1316.04 721.423 1307.82 741.207 1304.28 754.542C1295.19 788.832 1278.47 800.536 1230.45 806.229C1216.2 807.919 1204.02 810.559 1197.95 813.27C1167.69 826.804 1127.13 801.31 1130.9 771.119L1131.63 765.295L1135.07 773.08C1151.35 809.87 1183.62 801.456 1213.61 752.601C1230.31 725.396 1234.48 722.584 1281.86 706.505C1321.65 693.004 1327.75 691.898 1327.75 698.189ZM1644.48 706.768C1619.52 734.01 1606.61 778.501 1611.75 819.623C1616.37 856.595 1690.6 874.289 1724.17 846.418L1729.05 842.363L1722.01 836.053C1685.81 803.608 1667.92 764.5 1670.25 722.962C1671.5 700.831 1671.41 700.068 1667.15 697.086C1659.93 692.031 1656.72 693.404 1644.48 706.768ZM1712.07 699.949C1707.32 704.704 1706.36 707.005 1707.26 711.506C1708.04 715.422 1707.22 718.601 1704.56 721.99C1688.21 742.775 1712.08 822.006 1737.92 832.708C1749.71 837.59 1780 824.119 1795.29 807.194C1804.91 796.545 1804.59 795.767 1784.67 781.874C1748.32 756.513 1726.75 726.687 1728.55 704.265C1729.58 691.424 1722.46 689.559 1712.07 699.949ZM1875.18 724.853C1869.77 739.028 1851.78 766.301 1839.8 778.478C1822.19 796.39 1833.16 792.793 1855.52 773.328C1870.52 760.266 1894.06 727.066 1894.06 718.976C1894.06 711.039 1878.63 715.846 1875.18 724.853ZM1283.26 728.759C1273.78 732.663 1271.29 734.508 1272.33 736.86C1282.69 760.42 1260.22 779.622 1231.64 771.621C1227.04 770.332 1225.93 770.904 1223.34 775.917C1218.56 785.161 1219.2 785.659 1234.5 784.536C1262.01 782.522 1268.88 778.095 1279.03 755.86C1282.55 748.16 1288 738.063 1291.15 733.422C1298.37 722.791 1298.11 722.638 1283.26 728.759ZM1102.84 836.993C1120.43 943.377 1123.19 975.195 1123.91 1079.63C1124.48 1161.91 1124.67 1165.68 1128.42 1170.75C1131.57 1175.02 1131.8 1176.24 1129.58 1177.09C1125.41 1178.69 1094.08 1143.7 1097.04 1140.74C1098.76 1139.02 1100.04 1139.51 1102.33 1142.79C1105.8 1147.74 1111.39 1148.4 1114.83 1144.25C1117.26 1141.32 1113.46 1060.57 1109.08 1022.11C1108.04 1012.98 1106.28 993.207 1105.16 978.169C1098.81 892.693 1093.51 835.092 1087.54 786.676C1086.48 778.028 1085.63 767.922 1085.67 764.217C1085.84 745.025 1091.85 770.461 1102.84 836.993ZM1795.44 820.256C1775.52 839.383 1774.67 840.494 1783.73 835.538C1798.94 827.208 1827.66 804.665 1827.66 801.052C1827.66 793.789 1815.38 801.109 1795.44 820.256ZM1072.91 1207.64C1064.32 1209.6 1047.03 1215.24 1034.49 1220.17C1021.96 1225.1 1009.43 1229.13 1006.67 1229.13H1001.64V1282.12L1006.03 1280.76C1015.58 1277.82 1021.3 1273.61 1030.31 1262.91C1053.83 1234.98 1078.65 1213.5 1087.41 1213.5C1088.79 1213.5 1092.53 1211.31 1095.72 1208.62L1101.53 1203.74L1095.03 1203.9C1091.46 1203.99 1081.5 1205.67 1072.91 1207.64ZM1004.08 1335.88C1002.41 1336.55 1001.64 1341.79 1001.64 1352.33V1367.79H1014.19C1042.94 1367.79 1072.36 1360.67 1083.26 1351.07L1088.53 1346.43L1072.1 1346.37C1052.44 1346.29 1033.07 1343.17 1021.49 1338.21C1013.05 1334.6 1008.7 1334.01 1004.08 1335.88Z" fill="#A8291F" fill-opacity="0.6"/>
<path fill-rule="evenodd" clip-rule="evenodd" d="M430.036 2.55117C426.814 3.34603 419.597 5.98645 413.996 8.41986C404.433 12.5738 403.613 12.6422 400.512 9.54087C380.178 -10.7954 298.961 12.3121 266.131 47.7762C255.338 59.4354 255.041 59.5995 250.384 56.547C218.962 35.9568 139.229 116.001 108.844 198.643C107.266 202.932 106.016 203.866 103.406 202.706C72.3309 188.89 32.6191 259.627 29.2954 334.713L28.2136 359.174L20.6133 362.42C2.34501 370.222 -4.23392 416.224 7.58434 453.54C9.34966 459.119 9.02159 461.271 5.4226 467.675C-3.43524 483.436 -1.17 521.044 10.2382 547.632C14.9503 558.614 15.5869 562.412 15.1983 577.196C14.5851 600.552 40.811 669.437 60.1983 695.392C64.6799 701.394 67.82 707.797 67.859 711.016C68.0895 730.727 118.216 799.472 132.36 799.472C133.322 799.472 135.8 802.768 137.864 806.796C151.905 834.178 213.211 867.213 227.568 855.132L228.052 854.724C231.046 852.201 232.689 850.816 234.405 850.718C236.491 850.599 238.686 852.38 243.548 856.325L244.194 856.848C280.121 885.981 339.595 883.555 378.09 851.39C382.699 847.54 387.747 844.39 389.309 844.39C401.643 844.39 433.659 813.758 446.491 789.684C459.84 764.635 464.667 739.107 463.39 700.337C462.763 681.284 462.312 657.344 462.39 647.14C462.615 617.343 453.081 583.186 439.031 563.453C436.918 560.485 433.425 553.413 431.267 547.736L427.347 537.416L446.266 555.754C498.509 606.393 523.083 616.447 535.571 592.297C540.045 583.641 537.674 576.36 525.838 562.406C517.193 552.216 515.904 549.704 517.492 546.144C521.702 536.707 517.482 528.339 498.519 508.52C483.904 493.246 458.248 458.67 447.852 440.234C441.726 429.374 474.96 466.589 497.458 495.784C534.231 543.501 550.031 559.817 569.022 569.679C585.297 578.132 586.195 586.705 575.331 629.948C543.95 754.87 584.676 859.795 705.186 964.506L718.664 976.216L744.868 975.931L747.263 995.603C748.581 1006.42 751.256 1024.5 753.211 1035.78C755.164 1047.06 757.802 1062.44 759.071 1069.96C760.34 1077.48 762.707 1090.22 764.33 1098.28C765.953 1106.33 768.452 1119.66 769.882 1127.9C771.311 1136.13 773.727 1145.36 775.25 1148.4C776.773 1151.45 779.173 1159.65 780.585 1166.63C796.762 1246.71 845.423 1320.92 881.765 1320.92C882.962 1320.92 881.771 1324.11 879.119 1328.02C859.893 1356.36 901.234 1382.93 966.178 1383.98C994.401 1384.44 999.117 1382.4 1003.3 1367.9C1007.4 1353.68 1004.8 334.635 1000.64 328.514C993.007 317.269 975.006 315.306 941.567 322.073C936.464 323.106 935.275 322.544 933.275 318.154C928.417 307.492 891.245 273.089 876.141 265.279C871.954 263.113 870.72 260.822 869.921 253.739C867.632 233.426 839.932 198.798 819.049 190.14C809.719 186.273 808.063 184.783 807.041 179.342C803.608 161.039 769.538 127.649 754.297 127.649C749.001 127.649 747.362 126.842 747.354 124.231C747.313 110.994 706.986 82.0567 684.938 79.4437C676.517 78.4476 674.658 77.4028 671.368 71.8251C658.28 49.6413 615.014 33.0722 590.145 40.722C587.056 41.6712 585.746 40.6752 584 36.0486C577.497 18.8214 540.978 7.86522 518.32 16.345L507.839 20.2666L499.714 12.5367C488.101 1.4868 454.103 -3.38587 430.036 2.55117ZM762.998 744.4C749.754 723.587 744.259 720.546 686.324 701.991C649.492 690.193 648.502 690.674 661.32 714.121C665.55 721.859 672.26 737.856 676.232 749.671C690.417 791.871 701.384 800.159 750.996 806.173C766.896 808.098 778.158 810.561 783.991 813.385C809.705 825.833 842.285 809.868 850.936 780.577C854.346 769.033 851.571 762.787 847.185 772.13C828.339 812.27 800.312 803.038 762.998 744.4ZM686.828 726.194C686.828 726.96 688.478 729.919 690.495 732.77C692.512 735.621 697.912 745.679 702.493 755.122C714.157 779.155 718.822 782.131 748.784 784.639L762.897 785.821L760.875 780.505C757.355 771.24 756.04 770.568 745.513 772.65C721.043 777.489 701.622 760.903 708.537 741.07C711.06 733.827 710.677 733.25 700.948 729.651C689.193 725.302 686.828 724.722 686.828 726.194ZM770.766 620.947C822.4 636.281 871.173 679.684 873.819 712.656C874.889 726.003 870.194 740.154 867.369 732.094C853.371 692.17 815.319 652.888 762.01 623.329C750.729 617.074 754.383 616.08 770.766 620.947ZM888.734 839.508C890.293 826.618 892.632 804.126 893.936 789.525C898.967 733.159 893.085 751.501 879.162 835.602C862.36 937.096 858.322 983.663 857.593 1084.3C857.046 1159.75 856.695 1167.33 853.584 1170.77C850.858 1173.78 850.665 1175.02 852.615 1176.93C854.553 1178.83 855.939 1178.26 859.308 1174.19C861.643 1171.37 868.747 1163.2 875.094 1156.05C882.645 1147.53 885.969 1142.37 884.713 1141.12C883.458 1139.86 881.56 1140.56 879.218 1143.15C875.084 1147.72 872.425 1148.07 867.902 1144.66C864.18 1141.85 867.181 1089.04 879.084 947.898C880.759 928.026 882.979 900.782 884.014 887.356C885.051 873.929 887.176 852.398 888.734 839.508ZM487.7 10.9587C492.77 13.521 497.624 17.7961 499.343 21.2118C500.964 24.4342 502.459 27.3871 502.668 27.7738C502.875 28.1625 509.214 26.0591 516.754 23.1004C542.843 12.8629 587.292 29.346 580.604 46.7763C579.286 50.2115 579.423 50.2076 592.582 46.3818C617.978 38.9976 669.253 62.3258 669.253 81.2658C669.253 85.3455 670.128 85.6658 681.458 85.742C695.744 85.8377 700.95 88.2301 722.429 104.567C738.729 116.964 741.502 120.515 741.512 128.985C741.518 134.418 741.664 134.484 753.494 134.484H765.468L778.132 148.155C794.68 166.019 802.042 177.561 802.042 185.644C802.042 190.83 802.821 192.097 806.01 192.097C826.091 192.097 864.531 235.869 864.531 258.734C864.531 266.89 865.057 267.972 869.564 269.103C882.624 272.382 921.75 308.385 929.536 324.29C933.387 332.156 933.732 332.371 938.579 329.922C959.55 319.325 993.552 323.048 997.401 336.363C998.815 341.253 999.272 502.526 998.873 856.542L998.297 1369.63L993.829 1374.08C980.15 1387.7 908.92 1375.41 889.429 1356.07C876.853 1343.59 879.583 1324.82 893.974 1324.82C901.107 1324.82 893.417 1318.63 880.656 1314.1C835.572 1298.09 807.496 1253.84 786.268 1165.32C784.163 1156.54 781.143 1146.87 779.56 1143.84C777.976 1140.8 776.675 1135.6 776.668 1132.28C776.662 1128.96 774.979 1119.68 772.926 1111.66C770.876 1103.64 768.616 1092.73 767.907 1087.42C767.199 1082.11 765.019 1068.98 763.065 1058.24C757.628 1028.35 755.58 1015.46 752.045 988.91C751.799 987.06 751.571 985.336 751.36 983.731C749.469 969.39 748.838 964.6 747.151 964.194C746.305 963.99 745.194 964.89 743.525 966.241C743.152 966.543 742.753 966.866 742.322 967.205C731.004 976.109 724.765 973.691 697.9 949.99C587.452 852.554 550.519 749.066 582.315 626.108C593.112 584.348 591.122 574.112 570.12 563.396C556.675 556.536 533.448 532.588 507.796 499.138C484.601 468.89 444.61 424.845 436.174 420.253C418.396 410.58 464.273 482.487 497.269 516.015C512.208 531.194 514.76 536.691 511.04 545.673C508.341 552.192 508.435 552.364 523.606 568.517C541.285 587.34 527.434 606.542 504.242 595.359C472.172 579.893 419.288 523.866 366.133 449.042C353.11 430.711 337.789 409.479 332.085 401.862C312.242 375.358 309.995 353.284 326.252 344.581L331.182 341.945L324.379 337.328C316.21 331.783 315.798 331.731 315.798 336.248C315.798 345.236 294.234 354.194 272.597 354.194C266.248 354.194 265.026 354.844 265.026 358.229C265.026 366.507 245 391.078 233.073 397.433C227.698 400.296 227.122 401.462 227.628 408.461C228.269 417.343 222.594 430.11 211.598 444.517C205.532 452.464 205.081 453.842 207.503 457.039C213.441 464.879 208.454 486.48 196.79 503.436C192.033 510.35 191.34 512.385 193.743 512.385C209.879 512.385 213.076 552.667 198.198 568.505C194.56 572.378 194.462 572.927 197.403 572.927C209.407 572.927 213.849 593.906 207.534 620.759C204.425 633.983 204.57 634.61 210.053 631.674C224.945 623.702 239.376 637.371 243.055 662.934L244.549 673.325L254.536 672.796C271.691 671.886 284.864 679.544 291.516 694.293L295.068 702.171L297.647 693.324C300.354 684.045 306.611 678.073 317.665 674.22C323.242 672.275 323.612 671.527 323.653 662.084C323.703 650.331 329.253 636.719 335.322 633.471C339.214 631.387 339.306 630.93 336.465 627.79C333.045 624.011 332.173 605.188 335.195 600.413C336.451 598.431 335.318 596.097 331.261 592.306C325.252 586.693 324.096 580.282 325.207 558.731C325.558 551.899 324.9 549.114 322.735 548.284C317.296 546.197 311.893 534.795 311.893 525.405C311.893 518.816 310.973 515.935 308.436 514.578C303.879 512.139 287.01 485.369 281.33 471.558C270.746 445.825 280.967 433.129 306.548 440.234C317.663 443.322 376.544 483.164 384.742 493.146C388.581 497.819 397.528 508.674 404.625 517.267C411.719 525.86 420.208 538.603 423.485 545.585C426.764 552.567 430.734 560.477 432.311 563.162C449.572 592.558 456.745 617.656 456.587 648.116C456.532 658.858 456.963 682.862 457.549 701.46C459.553 765.185 431.558 822.396 390.928 837.606C385.587 839.604 377.881 844.045 373.804 847.474C338.638 877.046 283.986 879.487 248.828 853.056C235.568 843.088 231.936 842.508 225.172 849.273C213.957 860.489 142 819.929 142 802.39C142 800.911 136.892 795.769 130.647 790.963C100.512 767.771 73.7037 729.184 73.6647 708.94C73.6568 705.782 71.2334 700.275 68.0758 696.246C43.9823 665.498 14.714 584.282 22.4919 569.747C24.0952 566.75 23.3179 563.398 18.8656 554.12C4.86606 524.95 1.16553 480.875 11.7828 469.792L17.2838 464.051L12.8061 449.645C0.829659 411.113 10.0995 365.912 29.9789 365.912C34.5523 365.912 34.5972 365.705 34.5972 344.644C34.5972 271.776 80.1714 183.756 103.527 211.513L108.362 217.261L112.72 205.166C143.481 119.835 228.079 33.9062 250.214 65.5111L253.372 70.0186L270.427 52.4008C296.671 25.2896 328.497 11.4294 369.865 9.09363L389.756 7.96872L402.323 20.5361L415.203 14.687C436.975 4.80295 471.957 3.00231 487.7 10.9587ZM351.419 31.9571C359.215 30.6877 366.913 29.3909 368.524 29.0745C378.955 27.0297 385.165 30.2385 378.063 34.0019C339.162 54.6214 290.008 118.853 269.785 175.497L264.208 191.121L247.137 199.475C223.971 210.814 203.129 226.735 181.544 249.585C161.587 270.708 160.126 270.273 170.117 246.181C226.376 110.529 283.509 43.0227 351.419 31.9571ZM289.651 166.751C322.262 113.185 397.21 39.5971 429.06 29.8733C436.563 27.5824 473.736 27.7816 478.136 30.1369C481.633 32.0098 479.143 34.41 454.085 53.3168C410.335 86.3279 370.476 144.722 370.476 175.807C370.476 183.549 368.83 183.83 350.701 179.186C336.76 175.614 315.545 176.549 294.675 181.656C278.58 185.598 278.436 185.17 289.651 166.751ZM381.539 171.927C406.396 122.561 465.991 65.5033 514.35 44.7686C528.847 38.5523 543.999 38.8159 554.767 45.4697L562.101 50.0045L544.403 59.8514C499.198 85.0077 436.941 163.935 436.881 196.165C436.867 203.51 435.487 203.979 425.43 200.051C420.444 198.104 406.97 194.079 395.484 191.109L374.601 185.705L381.539 171.927ZM452.519 190.548C479.434 138.892 544.429 81.6896 592.85 67.0403C607.588 62.5817 619.047 65.5932 640.449 79.5491C652.361 87.3161 652.127 89.0835 638.496 94.2843C592.75 111.734 521.011 194.665 511.794 240.753C510.257 248.44 508.382 248.329 499.167 240.002C491.424 233.008 475.943 224.534 459.912 218.519C442.915 212.142 442.36 210.043 452.519 190.548ZM107.075 286.933C124.504 192.214 167.508 117.034 222.119 85.8162C236.67 77.4985 237.416 79.2874 225.482 93.8918C215.068 106.637 177.051 174.801 170.167 193.074C158.765 223.337 155.328 237.67 154.012 260.451L152.715 282.91L142.836 297.558C130.534 315.796 119.971 334.797 115.103 347.44C114.509 348.982 113.968 350.393 113.474 351.681C110.042 360.627 108.874 363.669 108.151 363.567C107.778 363.514 107.523 362.626 107.136 361.28C107.028 360.904 106.91 360.492 106.776 360.053C104.444 352.407 104.657 300.073 107.075 286.933ZM526.303 236.289C557.018 183.879 620.351 124.848 661.561 110.221C681.046 103.305 687.043 104.768 710.749 122.222C711.146 122.514 711.533 122.798 711.91 123.075C719.472 128.637 723.125 131.323 722.817 133.432C722.53 135.402 718.786 136.868 711.545 139.704C711.157 139.856 710.76 140.012 710.353 140.171C658.643 160.461 591.294 238.966 575.603 297.243L573.34 305.651L559.295 292.314C551.57 284.979 538.857 273.813 531.044 267.501C530.596 267.14 530.161 266.789 529.738 266.448C522.739 260.804 519.155 257.914 518.48 254.456C517.771 250.825 520.27 246.569 525.391 237.844C525.686 237.341 525.99 236.823 526.303 236.289ZM585.541 296.81C615.944 237.588 679.917 178.334 735.626 157.793C752.637 151.522 761.169 156.469 780.157 183.609L780.435 184.006C782.158 186.466 783.369 188.194 783.627 190.055C784.235 194.454 779.513 199.59 763.625 216.873L762.545 218.048C685.703 301.653 624.395 360.053 613.473 360.053C609.636 360.053 587.861 334.943 582.016 323.778L576.804 313.824L585.541 296.81ZM314.691 310.779C261.626 247.175 257.676 201.852 304.107 189.375C348.533 177.436 356.797 185.266 356.836 239.328C356.866 281.205 358.641 294.314 366.872 313.447C372.242 325.934 371.369 326.641 348.738 328.128L330.181 329.348L314.691 310.779ZM391.156 309.41C371.09 270.554 359.455 211.211 369.861 200.803C375.034 195.63 404.18 197.542 414.523 203.733C433.038 214.814 435.362 219.622 429.667 235.062C424.598 248.811 425.213 295.571 430.732 315.935C430.952 316.75 431.165 317.53 431.368 318.278C434.131 328.439 435.251 332.559 433.77 333.995C432.76 334.974 430.539 334.704 426.802 334.25C426.399 334.201 425.977 334.15 425.537 334.098C405.703 331.748 400.916 328.311 391.156 309.41ZM171.029 285.385C187.834 252.27 224.678 219.999 251.362 215.021C263.116 212.828 263.239 212.91 261.632 221.88C255.08 258.432 267.053 303.764 289.594 327.764L298.706 337.465L289.19 339.933C255.742 348.606 204.845 334.525 176.221 308.682L164.551 298.143L171.029 285.385ZM625.803 358.836C657.456 340.796 716.483 295.12 759.858 255.102C784.612 232.266 805.417 213.58 806.09 213.58C817.016 213.58 846.956 252.575 846.956 266.806C846.956 306.785 760.659 383.199 680.36 414.324C678.941 414.874 677.61 415.395 676.359 415.886C666.781 419.639 661.883 421.558 657.846 420.42C653.62 419.228 650.339 414.686 643.623 405.39C642.784 404.228 641.892 402.993 640.937 401.68C638.831 398.784 636.886 396.12 635.094 393.667C620.769 374.047 616.29 367.913 617.822 364.405C618.519 362.81 620.46 361.758 623.283 360.227C624.059 359.807 624.902 359.35 625.803 358.836ZM478.395 351.38C453.716 339.552 434.846 283.895 439.787 237.504L441.087 225.298H447.543C480.592 225.298 503.457 251.899 498.187 284.221C494.123 309.156 492.592 341.816 495.068 350.776C497.628 360.037 496.542 360.078 478.395 351.38ZM71.2686 446.96C36.677 378.313 41.0688 301.153 83.4286 233.377C89.0956 224.307 89.2518 225.313 85.9652 249.71C80.9173 287.183 85.3814 335.072 96.2916 360.48C103.165 376.493 102.988 379.098 93.5167 401.134C88.4141 413.008 84.3913 426.45 82.4151 438.24C80.7103 448.407 79.0563 457.604 78.736 458.678C78.4177 459.752 75.057 454.479 71.2686 446.96ZM526.526 371.282C516.359 360.18 512.672 344.054 511.563 305.858L511.561 305.763C510.868 281.927 510.634 273.85 513.418 272.622C514.845 271.993 517.066 273.165 520.424 274.936L520.45 274.95C550.939 291.033 562.603 323.634 546.87 348.796C544.36 352.807 540.773 360.926 538.896 366.833C534.905 379.411 534.2 379.665 526.526 371.282ZM679.993 425.46C737.907 418.964 831.971 354.998 858.013 304.403L865.357 290.134L877.049 299.218C911.355 325.868 916.507 334.961 913.169 362.982C906.421 419.632 872.424 463.683 809.494 497.323C729.547 540.056 685.016 527.247 665.972 456.039L665.937 455.91C661.839 440.582 659.981 433.635 662.647 430.093C664.856 427.158 670.172 426.562 679.894 425.471L679.993 425.46ZM123.349 385.977C106.936 378.149 127.661 323.593 151.741 311.234L158.55 307.738L170.339 319.736C185.803 335.475 210.121 350.434 229.856 356.348C248.738 362.006 248.962 363.092 234.27 377.7C212.516 399.327 159.617 403.274 123.349 385.977ZM555.907 376.145C559.373 357.908 564.302 337.533 566.058 334.176C567.04 332.295 568.473 330.78 569.241 330.805C570.391 330.842 594.58 365.636 596.648 370.23C596.994 370.993 591.251 377.887 583.889 385.549L570.502 399.477L563.421 395.298C554.624 390.107 553.701 387.752 555.907 376.145ZM940.764 363.189C942.705 349.735 943.863 348.233 953.772 346.316C957.855 345.525 965.369 344.777 970.47 344.654L979.746 344.429V1193.97H959.45C948.288 1193.97 932.69 1192.73 924.789 1191.22C866.398 1180.04 851.602 1180.38 845.556 1193.06C834.902 1215.4 869.538 1260.07 895.94 1258.04L903.657 1257.44L894.401 1250.61C877.004 1237.76 878.472 1227.42 896.481 1235.96C945.607 1259.28 939.839 1320.92 889.918 1306.09C846.201 1293.11 816.852 1247.19 798.943 1163.74C797.324 1156.2 794.836 1147.83 793.415 1145.15C791.993 1142.46 790.234 1134.78 789.505 1128.07C788.777 1121.36 787.012 1113.01 785.584 1109.51C784.155 1106.02 782.395 1097.89 781.673 1091.44C780.952 1085 778.607 1070.06 776.465 1058.24C769.683 1020.84 769.138 1017.58 766.843 1000.63C764.605 984.1 752.076 907.93 750.217 899.562C748.737 892.894 746.005 894.299 744.513 902.491C741.799 917.4 729.053 959.616 727.264 959.616C724.233 959.616 688.08 927.315 672.121 910.35C592.803 826.025 568.479 737.684 595.888 633.469C607.511 589.269 601.905 563.48 578.931 555.471C563.736 550.173 544.431 529.592 500.958 472.349C459.252 417.431 416.406 389.195 382.445 394.247L373.909 395.517L374.995 403.62C375.595 408.076 377.018 412.035 378.161 412.416C379.305 412.797 380.24 414.812 380.24 416.894C380.24 431.977 433.762 504.514 483.066 556.249C519.206 594.171 517.765 596.245 478.538 562.766C451.181 539.416 427.103 512.867 398.985 475.048C314.543 361.465 313.441 358.178 360.713 360.754C473.66 366.91 570.573 424.101 652.801 533.123C679.589 568.64 702.167 572.62 757.331 551.544C848.995 516.521 930.752 432.571 940.764 363.189ZM591.786 396.708C595.363 391.048 598.851 384.881 599.536 383C600.946 379.135 604.811 378.348 604.811 381.926C604.811 383.217 610.206 395.982 616.803 410.295C617.147 411.043 617.484 411.773 617.812 412.485C624.636 427.284 627.943 434.456 626.379 435.752C624.909 436.971 619.134 432.996 607.929 425.284C607.355 424.889 606.767 424.484 606.164 424.069C604.467 422.902 602.897 421.83 601.447 420.839C590.887 413.624 586.692 410.759 586.384 407.523C586.181 405.391 587.665 403.098 590.127 399.294C590.639 398.502 591.194 397.644 591.786 396.708ZM61.3367 519.732C30.6819 481.975 11.6891 415.861 24.5775 391.777C28.2175 384.977 29.5844 386.332 34.4312 401.553C41.1957 422.794 54.8789 447.898 66.9822 461.275C76.5177 471.814 77.5097 473.675 75.5393 477.354C74.3149 479.643 72.8191 491.566 72.2137 503.852C70.9308 529.885 70.3137 530.788 61.3367 519.732ZM89.0292 467.296C83.5711 447.776 90.9839 417.833 106.222 397.855C111.381 391.087 113.607 389.966 115.569 393.142C123.053 405.252 174.061 420.107 197.126 416.892C197.999 416.77 198.82 416.653 199.592 416.544C205.492 415.703 208.457 415.281 209.211 416.378C209.973 417.487 208.475 420.15 205.462 425.503C205.072 426.196 204.656 426.935 204.216 427.721C179.719 471.554 98.0647 499.606 89.0292 467.296ZM432.565 492.775C423.639 482.481 382.193 415.929 382.193 411.891C382.193 401.186 410.825 432.58 436.629 471.575C453.312 496.786 467.514 515.726 478.216 527.032C490.307 539.808 493.219 543.826 489.591 542.732C476.085 538.658 460.551 525.052 432.565 492.775ZM319.513 503.768C314.578 508.235 296.962 483.336 291.414 464.049C289.848 458.61 295.314 458.049 304.347 462.721C321.008 471.337 367.186 503.71 371.921 510.092C374.849 514.039 381.967 522.921 387.737 529.831C401.086 545.81 407.22 555.1 409.368 562.592L411.073 568.539L399.034 567.572C383.154 566.297 367.559 569.726 352.226 577.864L339.724 584.498L338.685 575.296C336.492 555.874 341.972 538.635 354.489 525.567C360.181 519.626 360.818 518.244 357.863 518.244C352.895 518.244 339.238 526.499 333.805 532.786C327.209 540.416 325.562 537.486 325.562 518.128C325.562 499.841 325.09 498.722 319.513 503.768ZM94.95 482.018C113.537 491.632 152.169 489.519 178.127 477.469C206.977 464.076 182.681 507.315 151.581 524.708C122.971 540.709 84.5788 538.562 79.6129 520.681C73.239 497.726 82.1046 475.376 94.95 482.018ZM50.5847 581.598C27.1434 551.272 12.6167 508.336 19.6213 490.08C21.4491 485.315 22.3591 486.172 28.1901 498.159C34.9995 512.154 52.7171 530.491 61.9362 533.08L68.771 535L68.9506 560.311C69.0483 574.232 70.0989 589.553 71.2823 594.357C75.0589 609.692 69.7903 606.444 50.5847 581.598ZM98.0628 545.849C121.178 554.426 161.61 550.708 176.358 538.648C186.231 530.575 188.867 532.075 188.867 545.767V557.664L176.662 569.79C154.198 592.111 121.211 609.383 97.2133 611.397L83.8953 612.514L79.5777 601.021C73.2839 584.266 72.2919 564.859 77.041 551.444L77.1915 551.019C78.9722 545.983 79.9677 543.169 81.9163 542.112C84.3859 540.773 88.3867 542.258 97.4583 545.625L98.0628 545.849ZM347.051 616.344C347.07 602.222 367.832 580.487 385.98 575.593C411.323 568.757 416.261 571.796 429.277 602.222C435.215 616.103 440.423 658.858 436.176 658.858C435.516 658.858 428.593 653.897 420.79 647.833C401.252 632.651 385.257 625.405 368.906 624.333C348.582 623.001 347.041 622.439 347.051 616.344ZM77.4394 689.721C65.379 674.462 34.5972 603.499 34.5972 590.953C34.5972 585.885 35.4018 586.367 49.247 599.73C57.3042 607.504 65.9922 614.393 68.5542 615.035C72.9792 616.146 73.2546 617.148 74.0904 635.09C75.0355 655.395 79.5738 671.076 90.8472 692.99C99.9277 710.637 92.5481 708.838 77.4394 689.721ZM111.291 622.712C143.323 622.693 167.133 615.328 184.515 600.065C193.261 592.386 193.685 593.197 190.9 612.242C184.058 659.047 155.465 697.158 121.91 704.196L111.119 706.46L105.567 699.896C88.6172 679.856 80.9681 651.811 86.1195 628.587L87.4181 622.728L111.291 622.712ZM345.938 674.776C333.096 666.988 334.209 653.341 348.021 649.222C370.115 642.634 414.268 651.132 430.079 665.016C449.053 681.676 442.608 758.235 419.292 793.154C408.015 810.045 376.698 836.524 381.191 825.37C398.569 782.225 377.963 694.201 345.938 674.776ZM138.351 708.832C174.798 697.441 202.435 678.575 211.219 659.092C220.92 637.574 230.975 679.292 223.301 709.227C216.958 733.971 186.247 781.993 175.819 783.479C161.985 785.448 120.428 742.148 117.229 722.433L116.149 715.773L138.351 708.832ZM251.608 720.22C252.544 719.642 253.309 713.221 253.309 705.952V692.734L259.113 693.588C268.754 695.001 274.79 702.181 274.79 712.233C274.79 717.531 275.923 721.816 277.719 723.306C281.613 726.538 281.847 769.509 278.039 782.073C262.089 834.707 231.999 846.507 194.657 814.77C176.785 799.579 176.446 796.134 191.797 785.815C220.053 766.816 246.203 739.795 248.775 726.937C249.398 723.822 250.673 720.798 251.608 720.22ZM311.264 715.146C309.813 703.352 310.046 701.718 313.705 698.058C338.869 672.892 385.745 788.44 367.799 831.393C358.322 854.077 299.338 867.703 270.884 853.782C253.512 845.283 251.251 842.834 257.105 838.85C291.506 815.436 316.562 758.202 311.264 715.146ZM147.859 788.731C131.576 783.719 87.3224 731.801 87.3224 717.711C87.3224 708.194 103.398 717.525 109.717 730.712C118.26 748.54 130.27 766.295 142.869 779.718C151.102 788.486 151.93 789.982 147.859 788.731ZM187.709 829.46C179.594 824.593 156.219 804.968 154.897 801.913C150.544 791.853 166.016 800.923 185.964 820.125C206.374 839.77 206.56 840.768 187.709 829.46ZM899.035 1215.61C892.157 1212.33 885.426 1208.32 884.079 1206.69C878.226 1199.64 911.463 1206.62 945.254 1219.54C959.04 1224.81 972.44 1229.13 975.034 1229.13H979.746V1255.49C979.746 1269.99 979.277 1281.86 978.705 1281.86C972.823 1281.86 957.449 1270.29 947.706 1258.54C930.313 1237.56 912.976 1222.27 899.035 1215.61ZM912.923 1346.27C931.481 1346.23 952.889 1342.45 961.557 1337.67C964.578 1336.01 969.689 1334.85 972.911 1335.1L978.769 1335.56L979.914 1368.39L957.861 1367.12C912.439 1364.48 873.344 1346.35 912.923 1346.27ZM348.996 435.68C314.572 388.031 310.065 379.916 309.995 365.423C309.966 359.683 309.993 356.563 308.469 355.269C306.628 353.706 302.528 354.806 293.341 357.168C287.971 358.549 280.808 359.762 277.422 359.865C272.398 360.018 270.886 361.143 269.201 365.978C266.752 373.005 242.571 400.491 237.392 402.135C234.635 403.01 233.781 405.221 233.781 411.48C233.781 419.286 223.293 440.929 215.111 450.009C212.93 452.43 212.816 454.262 214.564 458.895C217.692 467.183 215.146 480.846 207.723 495.597L201.434 508.094L206.587 513.863C215.113 523.405 216.357 549.142 209.001 563.742C206.44 568.822 206.614 569.638 211.498 575.442C216.683 581.606 216.734 581.946 215.546 602.694L214.345 623.704H220.286C232.432 623.704 243.291 636.58 247.677 656.178C249.982 666.478 250.154 666.67 257.037 666.681C268.555 666.699 278.514 670.421 286.608 677.735L294.244 684.633L299.227 678.712C301.967 675.454 307.257 671.785 310.981 670.554C317.359 668.449 317.751 667.816 317.751 659.62C317.751 651.132 321.499 639.344 325.871 634.075C330.054 629.034 328.599 599.333 323.875 593.328C320.366 588.865 319.704 585.416 319.704 571.574C319.704 556.081 319.349 554.68 313.619 547.55C309.339 542.222 307.243 537.191 306.548 530.575C305.939 524.788 303.912 519.296 301.274 516.291C241.294 447.974 272.726 407.422 347.174 457.073C371.647 473.392 377.439 477.28 377.901 476.726C378.056 476.54 377.61 475.853 377.069 474.968C376.128 473.429 363.495 455.748 348.996 435.68Z" fill="#A8291F" fill-opacity="0.6"/>
</svg>
