<svg width="26" height="26" viewBox="0 0 26 26" fill="none" xmlns="http://www.w3.org/2000/svg">
<path d="M25.4619 12.4318L13.6487 0.276829C13.5636 0.189075 13.4626 0.119454 13.3514 0.0719525C13.2402 0.0244507 13.1209 0 13.0005 0C12.8801 0 12.7609 0.0244507 12.6497 0.0719525C12.5385 0.119454 12.4374 0.189075 12.3524 0.276829L0.53918 12.4318C0.195022 12.7862 0 13.2675 0 13.7695C0 14.812 0.823109 15.6595 1.8355 15.6595H3.08021V24.3328C3.08021 24.8555 3.49033 25.2778 3.99796 25.2778H11.165V18.6628H14.3772V25.2778H22.0031C22.5107 25.2778 22.9209 24.8555 22.9209 24.3328V15.6595H24.1656C24.6531 15.6595 25.1206 15.4617 25.4648 15.1043C26.1789 14.3661 26.1789 13.1701 25.4619 12.4318Z" fill="#CA4F45"/>
</svg>
