<svg width="31" height="31" viewBox="0 0 31 31" fill="none" xmlns="http://www.w3.org/2000/svg">
<path fill-rule="evenodd" clip-rule="evenodd" d="M7.98168 0.087582C3.40626 0.315135 0.956879 2.24323 0.274666 6.15431C-0.0906206 8.24867 -0.0919296 22.7048 0.272994 24.7993C0.864521 28.1942 2.79728 30.1387 6.16361 30.7255C8.27294 31.0932 22.913 31.0908 24.8871 30.7224C28.4957 30.049 30.3709 27.9729 30.858 24.1114C31.1027 22.1719 31.0097 7.67956 30.7427 6.15431C30.1612 2.83138 28.2338 0.893832 24.8897 0.27057C23.6097 0.0320389 11.6922 -0.0969322 7.98168 0.087582ZM21.7989 4.25471C24.5817 4.93141 26.1053 6.45601 26.7487 9.20781C26.8865 9.79704 27.0375 19.8956 26.9227 20.8428C26.4985 24.3435 24.4246 26.4445 20.9991 26.8439C19.8338 26.9798 9.84397 26.8898 9.21805 26.7378C6.35524 26.0425 4.73934 24.3568 4.22635 21.5305C4.08229 20.7368 4.08229 10.2559 4.22635 9.46218C4.77694 6.42853 6.743 4.57467 9.85124 4.15831C10.7925 4.03225 21.2303 4.11643 21.7989 4.25471ZM9.86041 6.29658C7.96372 6.64685 6.84808 7.5655 6.39916 9.14666C6.14391 10.0455 6.14543 20.7311 6.40091 21.6395C6.87288 23.318 7.75654 24.2014 9.43614 24.6741C10.0165 24.8374 10.0316 24.8378 15.5812 24.8381L21.1445 24.8384L21.7974 24.6339C23.374 24.1404 24.1579 23.3564 24.6476 21.7833L24.8509 21.1306L24.8748 15.8598C24.91 8.0659 24.6496 7.25557 21.8349 6.39858C21.1575 6.19233 10.898 6.10494 9.86041 6.29658ZM22.251 8.12951C23.0451 8.50617 23.195 9.64881 22.5368 10.3068C22.033 10.8105 21.5483 10.8508 20.9883 10.4356C19.7436 9.51257 20.8617 7.47041 22.251 8.12951ZM17.0357 9.76237C20.6483 10.6836 22.4819 14.7658 20.8089 18.1631C18.908 22.0232 13.4396 22.5455 10.8348 19.1156C7.42579 14.6267 11.574 8.36957 17.0357 9.76237ZM14.854 11.7139C12.1358 12.2338 10.8084 15.2852 12.3013 17.5821C14.3675 20.7612 19.3198 19.2894 19.3198 15.4963C19.3198 13.1262 17.1369 11.2774 14.854 11.7139Z" fill="white"/>
</svg>
