<svg width="29" height="29" viewBox="0 0 29 29" fill="none" xmlns="http://www.w3.org/2000/svg">
<path d="M7 3.5C7 5.433 5.433 7 3.5 7C1.567 7 0 5.433 0 3.5C0 1.567 1.567 0 3.5 0C5.433 0 7 1.567 7 3.5Z" fill="#CA4F45"/>
<path d="M7 14.5C7 16.433 5.433 18 3.5 18C1.567 18 0 16.433 0 14.5C0 12.567 1.567 11 3.5 11C5.433 11 7 12.567 7 14.5Z" fill="#CA4F45"/>
<path d="M7 25.5C7 27.433 5.433 29 3.5 29C1.567 29 0 27.433 0 25.5C0 23.567 1.567 22 3.5 22C5.433 22 7 23.567 7 25.5Z" fill="#CA4F45"/>
<path d="M18 3.5C18 5.433 16.433 7 14.5 7C12.567 7 11 5.433 11 3.5C11 1.567 12.567 0 14.5 0C16.433 0 18 1.567 18 3.5Z" fill="#CA4F45"/>
<path d="M18 14.5C18 16.433 16.433 18 14.5 18C12.567 18 11 16.433 11 14.5C11 12.567 12.567 11 14.5 11C16.433 11 18 12.567 18 14.5Z" fill="#CA4F45"/>
<path d="M18 25.5C18 27.433 16.433 29 14.5 29C12.567 29 11 27.433 11 25.5C11 23.567 12.567 22 14.5 22C16.433 22 18 23.567 18 25.5Z" fill="#CA4F45"/>
<path d="M29 3.5C29 5.433 27.433 7 25.5 7C23.567 7 22 5.433 22 3.5C22 1.567 23.567 0 25.5 0C27.433 0 29 1.567 29 3.5Z" fill="#CA4F45"/>
<path d="M29 14.5C29 16.433 27.433 18 25.5 18C23.567 18 22 16.433 22 14.5C22 12.567 23.567 11 25.5 11C27.433 11 29 12.567 29 14.5Z" fill="#CA4F45"/>
<path d="M29 25.5C29 27.433 27.433 29 25.5 29C23.567 29 22 27.433 22 25.5C22 23.567 23.567 22 25.5 22C27.433 22 29 23.567 29 25.5Z" fill="#CA4F45"/>
</svg>
