<svg width="25" height="25" viewBox="0 0 25 25" fill="none" xmlns="http://www.w3.org/2000/svg">
<path d="M23.4328 25C10.1031 25.0187 -0.0140478 14.7812 1.46417e-05 1.56719C1.46417e-05 0.703124 0.700014 0 1.56251 0H5.68751C6.46095 0 7.11876 0.56875 7.23282 1.33437C7.50486 3.17039 8.03895 4.95788 8.81876 6.64218L8.97969 6.98905C9.0878 7.22248 9.11106 7.48631 9.04545 7.73504C8.97984 7.98378 8.82949 8.20182 8.62032 8.35155C7.3422 9.26405 6.8547 11.1 7.85001 12.5312C9.10311 14.3333 10.6671 15.8978 12.4688 17.1515C13.9016 18.1453 15.7375 17.6578 16.6484 16.3812C16.798 16.1714 17.0162 16.0205 17.2653 15.9546C17.5144 15.8887 17.7787 15.9119 18.0125 16.0203L18.3578 16.1797C20.0422 16.9609 21.8297 17.4953 23.6656 17.7672C24.4312 17.8812 25 18.539 25 19.314V23.4375C25 23.6428 24.9595 23.8461 24.8809 24.0358C24.8023 24.2255 24.6871 24.3978 24.5418 24.5429C24.3965 24.688 24.2241 24.8031 24.0344 24.8815C23.8446 24.9599 23.6413 25.0002 23.4359 25H23.4328Z" fill="#CA4F45"/>
</svg>
