<svg width="34" height="34" viewBox="0 0 34 34" fill="none" xmlns="http://www.w3.org/2000/svg">
<g filter="url(#filter0_d_21_1364)">
<mask id="path-1-inside-1_21_1364" fill="white">
<path fill-rule="evenodd" clip-rule="evenodd" d="M17 26C24.1797 26 30 20.1797 30 13C30 5.8203 24.1797 0 17 0C9.8203 0 4 5.8203 4 13C4 20.1797 9.8203 26 17 26ZM10.0166 18.6195C6.1612 14.0826 8.05915 7.27988 13.7929 5.08427C13.919 5.03598 14.0359 4.99987 14.0526 5.00404C14.0693 5.00818 14.736 7.07641 15.5341 9.60007C16.396 12.3254 16.6999 13.6865 17.0031 13.6863C17.3058 13.6861 17.6079 12.3285 18.4642 9.61645C19.7418 5.57 19.8986 4.99662 20.0418 5.00002C20.0849 5.00104 20.1268 5.05447 20.1978 5.08098C25.924 7.21999 27.8455 14.0815 23.9892 18.6195L23.6658 19L21.5283 18.9909L19.3908 18.9818L19.1718 18.0317L18.9529 17.0815L19.0802 17.0298C21.9097 15.881 23.3259 12.8349 22.4472 9.78812C22.1659 8.81321 21.3849 7.69751 21.1801 7.97831C21.0539 8.15139 19.9657 11.6401 18.6912 15.9573L17.8948 18.6546L17.8033 18.9641H17.0026H16.2018L16.0174 18.3362C14.2881 12.4475 12.9735 8.1809 12.8257 7.97831C12.621 7.69751 11.8399 8.81321 11.5587 9.78812C10.6799 12.8349 12.0961 15.881 14.9256 17.0298L15.053 17.0815L14.834 18.0317L14.615 18.9818L12.4775 18.9909L10.34 19L10.0166 18.6195Z"/>
</mask>
<path d="M13.7929 5.08427L12.3626 1.34874L12.3625 1.34878L13.7929 5.08427ZM10.0166 18.6195L13.0647 16.0293L13.0647 16.0292L10.0166 18.6195ZM14.0526 5.00404L13.0818 8.88445L13.0914 8.88684L14.0526 5.00404ZM15.5341 9.60007L11.7202 10.8062L11.7202 10.8062L15.5341 9.60007ZM17.0031 13.6863L17.0009 9.68631H17.0009L17.0031 13.6863ZM18.4642 9.61645L14.6498 8.4121L14.6498 8.41212L18.4642 9.61645ZM20.0418 5.00002L19.9469 8.99889L19.9469 8.99889L20.0418 5.00002ZM20.1978 5.08098L21.5975 1.33388L21.5974 1.33384L20.1978 5.08098ZM23.9892 18.6195L20.9411 16.0292L20.9411 16.0293L23.9892 18.6195ZM23.6658 19L23.6488 23L25.5092 23.0079L26.7139 21.5902L23.6658 19ZM21.5283 18.9909L21.5112 22.9909H21.5113L21.5283 18.9909ZM19.3908 18.9818L15.493 19.8802L16.2047 22.9682L19.3737 22.9817L19.3908 18.9818ZM19.1718 18.0317L15.274 18.9299L15.274 18.93L19.1718 18.0317ZM18.9529 17.0815L17.449 13.375L14.2893 14.657L15.055 17.9797L18.9529 17.0815ZM19.0802 17.0298L20.5841 20.7364L20.585 20.736L19.0802 17.0298ZM22.4472 9.78812L26.2905 8.67957L26.2905 8.67954L22.4472 9.78812ZM21.1801 7.97831L17.9482 5.62148L17.9481 5.62159L21.1801 7.97831ZM18.6912 15.9573L22.5275 17.09L22.5276 17.0898L18.6912 15.9573ZM17.8948 18.6546L21.7307 19.7885L21.7311 19.7873L17.8948 18.6546ZM17.8033 18.9641V22.9641H20.792L21.6392 20.0981L17.8033 18.9641ZM16.2018 18.9641L12.3639 20.0911L13.2075 22.9641H16.2018V18.9641ZM16.0174 18.3362L19.8554 17.2092L19.8554 17.2091L16.0174 18.3362ZM12.8257 7.97831L16.0577 5.62152L16.0577 5.62148L12.8257 7.97831ZM11.5587 9.78812L7.71536 8.67954L7.71535 8.67957L11.5587 9.78812ZM14.9256 17.0298L13.4208 20.736L13.4217 20.7364L14.9256 17.0298ZM15.053 17.0815L18.9508 17.9797L19.7165 14.657L16.5569 13.375L15.053 17.0815ZM14.834 18.0317L18.7318 18.93L18.7319 18.9299L14.834 18.0317ZM14.615 18.9818L14.6321 22.9817L17.8011 22.9682L18.5128 19.8802L14.615 18.9818ZM12.4775 18.9909L12.4946 22.9909H12.4946L12.4775 18.9909ZM10.34 19L7.29192 21.5902L8.49663 23.0079L10.357 23L10.34 19ZM26 13C26 17.9706 21.9706 22 17 22V30C26.3888 30 34 22.3888 34 13H26ZM17 4C21.9706 4 26 8.02944 26 13H34C34 3.61116 26.3888 -4 17 -4V4ZM8 13C8 8.02944 12.0294 4 17 4V-4C7.61116 -4 0 3.61116 0 13H8ZM17 22C12.0294 22 8 17.9706 8 13H0C0 22.3888 7.61116 30 17 30V22ZM12.3625 1.34878C4.24103 4.4587 1.19786 14.419 6.96858 21.2097L13.0647 16.0292C11.1245 13.7462 11.8773 10.1011 15.2233 8.81976L12.3625 1.34878ZM15.0234 1.12364C14.5078 0.994638 14.0885 1.00132 13.944 1.00508C13.75 1.01014 13.5945 1.02838 13.505 1.0405C13.3252 1.06485 13.1834 1.09647 13.1163 1.11209C12.9701 1.14608 12.8491 1.18231 12.7829 1.20278C12.6357 1.24826 12.4904 1.29979 12.3626 1.34874L15.2233 8.8198C15.2215 8.82046 15.1978 8.82979 15.1447 8.84619C15.1255 8.85211 15.0447 8.87708 14.9292 8.90397C14.8773 8.91603 14.7484 8.94513 14.5786 8.96812C14.4942 8.97956 14.343 8.9974 14.1526 9.00237C14.0117 9.00604 13.5953 9.01292 13.0818 8.88444L15.0234 1.12364ZM19.3479 8.39398C18.9474 7.12735 18.5788 5.97203 18.3074 5.13004C18.1722 4.71043 18.0588 4.3616 17.9768 4.11357C17.9367 3.99226 17.8993 3.88059 17.8688 3.79244C17.8553 3.75341 17.8333 3.69019 17.8086 3.62424C17.7995 3.60002 17.7696 3.52035 17.7281 3.4242C17.7128 3.38894 17.6572 3.26008 17.5724 3.10314C17.5367 3.03707 17.4329 2.84751 17.269 2.62584C17.1892 2.51796 17.0239 2.30462 16.7751 2.07346C16.5933 1.90463 15.9913 1.36323 15.0138 1.12124L13.0914 8.88684C12.7394 8.78235 12.151 8.5231 11.9125 8.38339C11.7394 8.26731 11.4494 8.04103 11.3305 7.93491C11.0818 7.70391 10.9168 7.49079 10.8372 7.38319C10.6737 7.16209 10.5705 6.97334 10.5353 6.90835C10.4516 6.75354 10.3975 6.62781 10.384 6.59666C10.346 6.50873 10.3209 6.44122 10.3178 6.43299C10.3051 6.39902 10.2999 6.38313 10.3078 6.40597C10.3201 6.44158 10.3438 6.51188 10.381 6.62449C10.4537 6.84428 10.56 7.17101 10.6932 7.58443C10.9589 8.4085 11.3227 9.54913 11.7202 10.8062L19.3479 8.39398ZM17.0009 9.68631C18.5724 9.68547 19.5255 10.5802 19.8359 10.9186C20.1691 11.2818 20.3259 11.6047 20.3486 11.6505C20.4079 11.7698 20.3916 11.7651 20.2817 11.4273C20.1872 11.1368 20.0735 10.7602 19.9134 10.2308C19.7585 9.71837 19.5716 9.1014 19.3479 8.39396L11.7202 10.8062C12.0724 11.9197 12.4779 13.2994 12.6745 13.9032C12.7861 14.2463 12.9565 14.7522 13.185 15.2118C13.2924 15.4277 13.5294 15.8783 13.9406 16.3266C14.329 16.7499 15.3579 17.6872 17.0052 17.6863L17.0009 9.68631ZM14.6498 8.41212C14.4274 9.11639 14.2417 9.73077 14.0877 10.2411C13.9286 10.7684 13.8157 11.1433 13.7217 11.4325C13.6124 11.769 13.5965 11.7726 13.6562 11.6524C13.6792 11.6062 13.836 11.2829 14.1693 10.9194C14.4801 10.5804 15.4317 9.68714 17.0009 9.68631L17.0052 17.6863C18.6501 17.6854 19.6774 16.7497 20.066 16.3258C20.4771 15.8774 20.7139 15.4269 20.8211 15.211C21.0494 14.7515 21.2193 14.2461 21.3303 13.9042C21.5248 13.3055 21.9301 11.9244 22.2785 10.8208L14.6498 8.41212ZM20.1367 1.00114C18.5082 0.962496 17.4487 1.85955 16.9835 2.38765C16.5807 2.84499 16.3656 3.29807 16.2949 3.44842C16.1262 3.80704 15.986 4.21839 15.8846 4.52167C15.6537 5.21263 15.2751 6.43157 14.6498 8.4121L22.2785 10.8208C22.9308 8.75488 23.2694 7.66391 23.4721 7.05741C23.5876 6.71196 23.5932 6.72771 23.5342 6.85332C23.5182 6.88716 23.3489 7.26439 22.987 7.67522C22.7853 7.90425 22.434 8.24817 21.9051 8.53182C21.332 8.83922 20.6599 9.01581 19.9469 8.99889L20.1367 1.00114ZM21.5974 1.33384C22.0959 1.52002 22.4742 1.80172 22.3562 1.72165C22.3438 1.71318 22.2881 1.67525 22.2178 1.63115C22.1465 1.58635 22.0243 1.51241 21.867 1.43353C21.5698 1.28455 20.9586 1.02064 20.1366 1.00114L19.9469 8.99889C19.1465 8.9799 18.5567 8.72305 18.2818 8.58521C18.1355 8.51189 18.0247 8.44454 17.9649 8.40703C17.9063 8.37023 17.8625 8.3403 17.8624 8.34023C17.8282 8.31695 17.956 8.40591 18.0911 8.48699C18.2486 8.58149 18.4888 8.71257 18.7982 8.82812L21.5974 1.33384ZM27.0372 21.2097C32.8001 14.4283 29.7583 4.38234 21.5975 1.33388L18.7981 8.82808C22.0896 10.0576 22.891 13.7347 20.9411 16.0292L27.0372 21.2097ZM26.7139 21.5902L27.0373 21.2097L20.9411 16.0293L20.6177 16.4098L26.7139 21.5902ZM21.5113 22.9909L23.6488 23L23.6828 15L21.5453 14.9909L21.5113 22.9909ZM19.3737 22.9817L21.5112 22.9909L21.5454 14.9909L19.4079 14.9818L19.3737 22.9817ZM15.274 18.93L15.493 19.8802L23.2886 18.0834L23.0696 17.1333L15.274 18.93ZM15.055 17.9797L15.274 18.9299L23.0697 17.1335L22.8507 16.1833L15.055 17.9797ZM17.5764 13.3233L17.449 13.375L20.4567 20.788L20.5841 20.7364L17.5764 13.3233ZM18.6038 10.8967C18.9493 12.0945 18.3966 12.9903 17.5754 13.3237L20.585 20.736C25.4227 18.7718 27.7026 13.5753 26.2905 8.67957L18.6038 10.8967ZM24.412 10.3351C24.0479 10.8344 23.4991 11.3311 22.7479 11.6404C22.0068 11.9455 21.3001 11.9734 20.7527 11.9003C19.7863 11.7714 19.1718 11.3165 19.0147 11.1979C18.7829 11.0228 18.6439 10.8696 18.5975 10.817C18.5394 10.7511 18.5109 10.7102 18.5082 10.7064C18.5044 10.701 18.5312 10.7406 18.5655 10.8108C18.6003 10.8821 18.6096 10.9167 18.6038 10.8967L26.2905 8.67954C26.0149 7.7241 25.5428 6.80537 25.0617 6.11826C24.8506 5.81668 24.4401 5.26998 23.8351 4.81319C23.5716 4.61425 22.8603 4.11064 21.8108 3.97061C20.3993 3.78226 18.8865 4.33479 17.9482 5.62148L24.412 10.3351ZM22.5276 17.0898C23.1609 14.9445 23.7454 13.0134 24.1848 11.6049C24.4054 10.8976 24.5842 10.3389 24.7117 9.95635C24.7769 9.7611 24.8196 9.63892 24.8429 9.57575C24.8558 9.54062 24.8506 9.55686 24.8316 9.60198C24.8225 9.62339 24.7963 9.68499 24.7559 9.76742C24.7386 9.80258 24.6202 10.0496 24.4121 10.335L17.9481 5.62159C17.7321 5.91782 17.6039 6.18215 17.5751 6.24093C17.523 6.34697 17.4833 6.43851 17.4591 6.49604C17.4097 6.61339 17.3669 6.72654 17.3355 6.8118C17.2701 6.98941 17.1972 7.20192 17.1226 7.42553C16.9708 7.88068 16.7742 8.49642 16.5477 9.22265C16.0928 10.681 15.496 12.6529 14.8549 14.8248L22.5276 17.0898ZM21.7311 19.7873L22.5275 17.09L14.8549 14.8246L14.0586 17.5219L21.7311 19.7873ZM21.6392 20.0981L21.7307 19.7885L14.0589 17.5206L13.9674 17.8301L21.6392 20.0981ZM17.0026 22.9641H17.8033V14.9641H17.0026V22.9641ZM16.2018 22.9641H17.0026V14.9641H16.2018V22.9641ZM12.1795 19.4632L12.3639 20.0911L20.0398 17.8371L19.8554 17.2092L12.1795 19.4632ZM9.59377 10.3351C9.37765 10.0387 9.25677 9.78118 9.24282 9.75236C9.20364 9.67146 9.17902 9.61241 9.17192 9.59529C9.15662 9.55838 9.15572 9.55325 9.17362 9.60266C9.20676 9.69412 9.26243 9.85615 9.34351 10.1029C9.50307 10.5884 9.72683 11.2973 10.0059 12.2029C10.5621 14.0081 11.3177 16.5287 12.1795 19.4633L19.8554 17.2091C18.9879 14.255 18.2215 11.698 17.6511 9.84705C17.3669 8.92452 17.1262 8.16074 16.9436 7.6053C16.8537 7.33154 16.7689 7.08101 16.6951 6.87736C16.6595 6.77921 16.6136 6.65589 16.5619 6.53135C16.5367 6.47042 16.4961 6.37519 16.4431 6.2659C16.4154 6.2087 16.2831 5.93057 16.0577 5.62152L9.59377 10.3351ZM15.402 10.8967C15.3962 10.9167 15.4055 10.8821 15.4403 10.8108C15.4746 10.7406 15.5014 10.701 15.4976 10.7064C15.495 10.7102 15.4664 10.7511 15.4083 10.817C15.3619 10.8696 15.223 11.0228 14.9911 11.1979C14.834 11.3165 14.2195 11.7714 13.2531 11.9003C12.7058 11.9734 11.999 11.9455 11.2579 11.6404C10.5067 11.3311 9.9579 10.8344 9.5938 10.3351L16.0577 5.62148C15.1194 4.33479 13.6065 3.78226 12.195 3.97061C11.1456 4.11064 10.4342 4.61425 10.1707 4.81319C9.5657 5.26998 9.15522 5.81668 8.94409 6.11826C8.46304 6.80537 7.99095 7.7241 7.71536 8.67954L15.402 10.8967ZM16.4304 13.3237C15.6092 12.9903 15.0565 12.0945 15.402 10.8967L7.71535 8.67957C6.30325 13.5753 8.58311 18.7718 13.4208 20.736L16.4304 13.3237ZM16.5569 13.375L16.4295 13.3233L13.4217 20.7364L13.5491 20.788L16.5569 13.375ZM18.7319 18.9299L18.9508 17.9797L11.1551 16.1833L10.9362 17.1335L18.7319 18.9299ZM18.5128 19.8802L18.7318 18.93L10.9362 17.1333L10.7172 18.0834L18.5128 19.8802ZM12.4946 22.9909L14.6321 22.9817L14.598 14.9818L12.4605 14.9909L12.4946 22.9909ZM10.357 23L12.4946 22.9909L12.4605 14.9909L10.323 15L10.357 23ZM6.96856 21.2097L7.29192 21.5902L13.3881 16.4098L13.0647 16.0293L6.96856 21.2097Z" fill="#E3810D" mask="url(#path-1-inside-1_21_1364)"/>
</g>
<defs>
<filter id="filter0_d_21_1364" x="0" y="0" width="34" height="34" filterUnits="userSpaceOnUse" color-interpolation-filters="sRGB">
<feFlood flood-opacity="0" result="BackgroundImageFix"/>
<feColorMatrix in="SourceAlpha" type="matrix" values="0 0 0 0 0 0 0 0 0 0 0 0 0 0 0 0 0 0 127 0" result="hardAlpha"/>
<feOffset dy="4"/>
<feGaussianBlur stdDeviation="2"/>
<feComposite in2="hardAlpha" operator="out"/>
<feColorMatrix type="matrix" values="0 0 0 0 0 0 0 0 0 0 0 0 0 0 0 0 0 0 0.25 0"/>
<feBlend mode="normal" in2="BackgroundImageFix" result="effect1_dropShadow_21_1364"/>
<feBlend mode="normal" in="SourceGraphic" in2="effect1_dropShadow_21_1364" result="shape"/>
</filter>
</defs>
</svg>
