<svg width="1979" height="795" viewBox="0 0 1979 795" fill="none" xmlns="http://www.w3.org/2000/svg">
<path fill-rule="evenodd" clip-rule="evenodd" d="M1885.24 6.95917C1949.62 36.7605 1995.73 139.242 1973.21 202.498C1942.61 288.458 1843.76 330.697 1544.81 385.554C1476.47 398.094 1426.4 408.497 1407.14 414.156C1398.3 416.752 1397.91 417.124 1387.56 433.152C1375.77 451.406 1375.48 451.65 1377.88 441.341C1380.27 431.087 1378.54 382.035 1375.45 372.428C1374.13 368.309 1372.51 359.22 1371.86 352.229L1370.67 339.519L1382.75 340.719C1460.35 348.42 1573.89 340.658 1674.89 320.751C1738.7 308.172 1831.09 257.214 1874.7 210.543C1887.19 197.174 1883.98 197.926 1859.13 214.187C1735.38 295.165 1646.76 317.484 1434.51 321.134L1369.28 322.257L1370.34 306.829L1370.41 305.81C1371.26 293.252 1371.82 285.126 1375.96 279.758C1383.54 269.917 1403.16 269.352 1458.76 267.751L1461.23 267.68C1683.64 261.269 1830.17 227.523 1883.6 170.412C1916.93 134.783 1915.59 98.699 1878.2 24.4341L1877.21 22.4596L1877.2 22.4586C1870.41 8.97681 1867.27 2.74242 1868.79 1.23918C1870.11 -0.053987 1874.87 2.15403 1883.73 6.26138L1885.24 6.95917ZM1312.06 206.225C1348.07 210.803 1370.33 217.419 1383.48 227.449C1388.78 231.491 1403.28 256.999 1401.01 258.291C1400.32 258.684 1394.6 259.94 1388.29 261.084C1345.58 268.819 1341.18 290.171 1360.92 393.85C1366.16 421.347 1369.9 444.072 1369.24 444.349C1368.58 444.628 1365.04 443.321 1361.36 441.448C1357.69 439.574 1354.68 438.343 1354.68 438.712C1354.68 451.528 1362.47 475.001 1369.31 482.787C1373.37 487.418 1375.79 493.373 1380.43 510.123C1383.69 521.902 1386.97 531.538 1387.73 531.538C1388.49 531.538 1395.74 529.404 1403.86 526.795C1417.51 522.405 1423.29 522.363 1415.16 526.713C1413.26 527.728 1408.65 531.735 1404.92 535.617C1394.66 546.271 1387.51 547.82 1340.75 549.536C1286.37 551.533 1264.9 555.844 1235.4 570.701C1213.79 581.575 1204.12 589.612 1177.42 618.866C1170.5 626.445 1169.23 627.053 1137.18 638.055C1083.79 656.386 1065.89 658.389 1044.64 648.41C1035.6 644.169 1028.69 639.132 1003.56 618.489L998.663 614.464L1000.99 620.128C1002.27 623.242 1025.39 680.557 1052.37 747.495C1054.03 751.591 1055.63 755.568 1057.18 759.428C1087.48 834.605 1099.78 865.145 1103.47 864.138C1105.99 863.45 1104.47 847.994 1101.91 821.965L1101.9 821.882C1101.71 819.955 1101.52 817.971 1101.32 815.93C1094.32 744.256 1099.82 713.604 1123.63 691.559C1136.26 679.867 1143.23 677.952 1193.23 672.461C1240.13 667.309 1275.08 651.339 1291.77 627.438C1294.72 623.211 1295.56 622.832 1297.82 624.708C1300.13 626.63 1301.27 625.107 1307.59 611.57C1317.88 589.566 1325.39 584.508 1358.58 577.227C1359.08 577.117 1359.57 577.01 1360.04 576.906L1360.87 576.722L1361.49 576.584C1368.58 575.006 1371.99 574.248 1373.14 575.526C1374.21 576.708 1373.35 579.632 1371.69 585.261C1371.46 586.04 1371.22 586.871 1370.96 587.756C1366.13 604.392 1367.4 616.74 1374.47 621.774C1378.48 624.627 1379.27 626.325 1379.25 632.048C1379.21 643.892 1378.16 645.512 1368.62 648.521C1352.99 653.448 1352.81 653.783 1352.25 679.119C1351.26 723.965 1337.79 749.698 1307.72 764.176C1301.54 767.148 1291.33 772.085 1285.02 775.148C1263.69 785.498 1244.32 802.999 1230.01 824.828C1227.58 828.545 1227.1 827.083 1219.57 792.823C1215.23 773.077 1211.03 756.22 1210.24 755.364C1209.41 754.466 1208.8 780.659 1208.8 817.306C1208.8 883.981 1207.74 900.643 1201.57 931.49C1197.32 952.711 1187.58 985.833 1185.9 984.79C1185.29 984.415 1174.15 960.685 1161.15 932.059C1148.15 903.435 1137.32 881.085 1137.09 882.395C1136.86 883.703 1138.79 910.591 1141.38 942.145C1143.97 973.698 1145.9 999.736 1145.67 1000.01C1145.45 1000.27 1136.14 1001.13 1124.99 1001.9C1076.71 1005.24 1049.17 1019.24 1034.66 1047.81C1027.08 1062.73 1053.29 1053.65 1089.71 1028.75C1101.14 1020.93 1115.91 1016.9 1137.62 1015.66L1156.24 1014.59L1157.9 1018.97C1171.03 1053.5 1169.77 1095.79 1155.23 1108.56C1139.5 1122.37 1094.69 1136.79 1105.17 1124.67C1125.67 1100.95 1133.32 1084.04 1133.36 1062.29L1133.4 1044.74L1122.37 1048.89C1115.63 1051.43 1108.44 1055.71 1103.89 1059.88C1099.8 1063.64 1088.58 1072.68 1078.95 1079.97L1061.44 1093.22L1075.41 1114.13C1083.1 1125.64 1089.13 1135.31 1088.81 1135.62C1087.59 1136.84 1032.53 1131.23 1020.62 1128.67C1013.68 1127.17 1003.58 1125.8 998.168 1125.61L991.491 1125.37V1126.4L983.554 1125.84C979.189 1125.54 971.743 1126.44 967.005 1127.85C959.405 1130.11 935.875 1133.07 900.794 1136.18C891.916 1136.96 889.854 1136.73 890.846 1135.06C891.534 1133.9 897.96 1124.16 905.128 1113.42C915.913 1097.25 917.754 1093.58 915.805 1092.11C894.439 1076 872.004 1058.07 871.563 1056.75C871.251 1055.81 865.837 1052.95 859.53 1050.39L848.064 1045.73L846.738 1052.46C844.594 1063.35 846.495 1081.62 850.615 1089.71C855.299 1098.91 868.824 1118.98 875.33 1126.4C881.526 1133.45 881.46 1133.45 859.107 1126.37C812.936 1111.75 805.2 1095.58 817.178 1038.7L821.838 1016.57L830.478 1016.08C857.212 1014.54 873.437 1019.21 900.558 1036.23C932.679 1056.39 951.46 1061.73 944.928 1048.84C930.418 1020.21 902.918 1005.85 856.53 1002.7C844.96 1001.91 835.084 1000.86 834.585 1000.36C834.085 999.863 835.823 972.534 838.444 939.63C841.065 906.725 842.763 880.335 842.217 880.984C841.67 881.632 830.63 905.583 817.682 934.209C804.736 962.835 793.643 985.701 793.031 985.022C791.205 982.998 785.308 963.648 780.915 945.27C772.18 908.73 771.465 900.103 770.891 824.184C770.596 785.084 770.096 752.836 769.782 752.519C769.465 752.204 765.699 767.968 761.411 787.55C757.121 807.132 753.218 824.512 752.735 826.174C752.026 828.607 750.805 827.635 746.45 821.168C730.901 798.079 714.782 785.333 679.897 768.545C640.058 749.372 627.599 727.984 627.599 678.766C627.599 655.587 626.905 654.395 610.401 649.192L601.782 646.476L600.845 637.387C599.953 628.752 600.187 627.99 605.557 622.047C612.427 614.441 613.168 603.483 607.968 586.382C607.761 585.702 607.563 585.058 607.375 584.449L607.363 584.408L607.363 584.407C605.903 579.672 605.1 577.067 606.048 575.958C607.205 574.602 610.976 575.477 619.354 577.422L620.33 577.649C620.749 577.746 621.178 577.845 621.618 577.947L622.214 578.084C654.832 585.597 662.727 591.122 672.649 613.39C678.271 626.007 679.007 626.936 681.953 625.133C684.536 623.554 685.42 623.651 686.552 625.636C701.593 652.035 737.843 668.159 795.429 674.066C847.22 679.377 863.898 689.235 875.12 721.162C882.778 742.95 882.943 753.585 876.9 836.267C876.175 846.183 876.03 858.154 876.575 862.868L877.569 871.438L902.471 809.596C916.166 775.582 939.502 717.712 954.33 680.997L981.287 614.241L970.407 623.807C926.886 662.074 912.65 663.471 836.954 636.905L807.462 626.554L795.967 612.903C758.947 568.941 719.393 553.138 639.073 550.216C589.261 548.403 585.879 547.555 571.15 533.183L560.49 522.783L576.051 527.73C577.559 528.209 578.93 528.661 580.179 529.072C586.036 531 589.217 532.047 591.389 531.001C593.972 529.757 595.128 525.554 597.66 516.356C598.115 514.705 598.613 512.893 599.173 510.909C603.367 496.026 606.198 489.226 610.612 483.445C617.697 474.164 619.005 470.945 621.999 455.43L622.161 454.593L622.161 454.592C624.05 444.811 624.812 440.862 623.562 440.063C622.715 439.522 620.946 440.426 617.978 441.941L617.605 442.132C617.314 442.281 617.031 442.427 616.758 442.571C616.59 442.658 616.426 442.745 616.265 442.829C614.185 443.925 612.682 444.716 611.784 444.275C609.448 443.128 611.209 433.636 617.552 399.445L617.553 399.443L618.23 395.793C618.519 394.234 618.816 392.628 619.123 390.973C631.302 325.187 631.474 323.507 628.322 300.91C624.13 270.854 621.509 267.859 594.816 262.645C587.153 261.147 580.044 259.651 579.019 259.318C572.574 257.225 593.809 227.91 606.391 221.536C636.681 206.185 727.138 198.355 775.863 206.862C804.491 211.862 822.187 217.913 861.835 236.263C904.767 256.133 930.882 263.176 967.722 264.82L988.333 265.739L988.333 265.177L1005.54 264.772C1043.27 263.887 1072.98 255.996 1120.75 234.176C1187.75 203.575 1235.9 196.541 1312.06 206.225ZM990.085 1072.24C990.045 1072.83 990.005 1073.12 989.963 1073.12C989.119 1073.12 980.451 1070.18 970.7 1066.58L969.317 1066.07C955.9 1061.13 952.094 1059.72 951.37 1060.67C951.083 1061.05 951.28 1061.79 951.555 1062.83C951.579 1062.92 951.603 1063.01 951.627 1063.1C952.071 1064.8 951.634 1066.69 950.653 1067.3C944.98 1070.8 968.622 1084.64 984.672 1087.21L989.638 1088L998.168 1085.62C1012.59 1081.59 1032.66 1071.05 1030.34 1068.73C1029.32 1067.71 1028.49 1065.19 1028.49 1063.11C1028.49 1062.84 1028.5 1062.59 1028.51 1062.35L1028.52 1062.21L1028.52 1062.16L1028.53 1061.92C1028.57 1061.05 1028.6 1060.43 1028.31 1060.1C1027.56 1059.25 1024.69 1060.28 1014.55 1063.92L1014.54 1063.92L1014.54 1063.93L1014.53 1063.93L1014.29 1064.02C1012.71 1064.58 1010.96 1065.21 1009.02 1065.9C1000.53 1068.93 992.841 1071.5 990.085 1072.24ZM1256.22 615.233C1260.79 611.406 1264.53 607.605 1264.53 606.787C1264.53 604.89 1260.87 605.156 1250.6 607.796C1246.09 608.955 1239.57 609.973 1236.1 610.06L1229.8 610.218L1230.89 618.176C1234.51 644.464 1204.94 660.251 1174.55 648.262C1168.12 645.726 1164.89 645.215 1162.7 646.389C1159.97 647.846 1151.42 658.938 1151.43 661.002C1151.43 661.469 1163.21 662.083 1177.59 662.367C1213.66 663.078 1218.17 661.021 1238.37 634.646C1243.61 627.797 1251.64 619.061 1256.22 615.233ZM1162.58 1135.15C1159.48 1138.99 1149.72 1151.16 1140.9 1162.2C1132.07 1173.24 1123.82 1182.28 1122.57 1182.28C1121.31 1182.28 1105.35 1180.73 1087.09 1178.84C1068.83 1176.96 1039.15 1174.93 1021.12 1174.34L991.49 1173.37V1174.25L956.658 1175.28C937.501 1175.84 911.499 1177.41 898.878 1178.77C886.256 1180.13 871.135 1181.67 865.275 1182.2L854.621 1183.16L833.312 1156.52C821.592 1141.86 811.775 1129.33 811.498 1128.67C811.219 1128.01 814.907 1128.51 819.694 1129.8C824.478 1131.08 838.601 1134.03 851.078 1136.35C894.504 1144.42 927.232 1144.17 961.134 1135.51C971.936 1132.75 983.186 1130.49 986.131 1130.49H987.433L987.419 1129.83H992.96C996.009 1129.83 1005.8 1131.65 1014.73 1133.87C1043.12 1140.95 1046.68 1141.45 1069.13 1141.47C1092.67 1141.48 1117.14 1138.54 1144.87 1132.35L1145.48 1132.22C1160.01 1128.97 1165.66 1127.71 1166.37 1129.06C1166.82 1129.91 1165.27 1131.83 1162.74 1134.95L1162.58 1135.15ZM102.406 22.8089C108.181 11.7479 112.907 2.3425 112.907 1.90977C112.907 -1.49966 90.2617 8.32373 75.5028 18.1357C25.9383 51.0858 -10.8179 141.368 3.72295 194.446C28.5855 285.208 128.56 330.123 427.459 384.808C497.141 397.557 529.847 404.102 554.657 410.26C556.013 410.597 557.298 410.914 558.516 411.215L558.517 411.215L558.518 411.215C570.96 414.285 576.493 415.65 580.631 418.83C583.944 421.375 586.363 425.084 590.718 431.763L590.719 431.764C591.252 432.581 591.814 433.442 592.41 434.351C603.074 450.616 603.331 450.869 601.961 443.691C599.694 431.812 601.01 385.178 603.895 375.23C605.27 370.483 606.855 360.653 607.416 353.389L608.434 340.177L596.298 341.395C570.093 344.026 444.798 343.005 418.049 339.941C357.467 333.002 283.199 318.55 258.791 308.951C204.592 287.636 123.264 235.218 101.233 207.4C93.9957 198.263 95.8856 198.307 109.046 207.58C231.574 293.904 346.49 322.068 577.352 322.353L609.883 322.394L608.717 304.773C608.536 302.028 608.439 299.513 608.351 297.207V297.206V297.206V297.205C608.081 290.151 607.886 285.053 605.548 281.283C599.45 271.452 578.776 270.662 504.184 267.811C494.835 267.454 484.639 267.064 473.519 266.62C247.566 257.601 121.78 221.397 87.1707 152.102C80.8184 139.383 77.5376 125.55 77.2727 110.565C76.8169 84.7834 85.2891 55.5933 102.406 22.8089ZM749.222 618.848C751.402 612.594 750.782 612.11 737.717 609.864C731.694 608.828 724.002 607.447 720.62 606.793C712.508 605.221 712.575 605.368 726.361 619.332C732.899 625.954 742.487 636.666 747.666 643.134C762.532 661.699 767.944 663.712 801.196 663.045C830.751 662.453 830.771 662.442 821.354 651.83L815.132 644.819L805.372 648.609C774.624 660.545 740.915 642.678 749.222 618.848Z" fill="#A8291F" fill-opacity="0.6"/>
</svg>
