<svg width="32" height="31" viewBox="0 0 32 31" fill="none" xmlns="http://www.w3.org/2000/svg">
<path fill-rule="evenodd" clip-rule="evenodd" d="M8.17767 0.0733085C3.80642 0.41812 1.65837 1.75951 0.732966 4.7224C-0.282629 7.97369 -0.229067 23.4492 0.808178 26.4869C2.16553 30.4621 3.98127 31 16.0435 31C31.7669 31 32 30.7735 32 15.4955C32 0.183079 31.7861 -0.0222663 15.8641 0.00109964C12.0692 0.00670455 8.61029 0.0391694 8.17767 0.0733085ZM9.22413 10.0729C9.37231 10.217 9.56431 10.5868 9.78665 11.1563C11.1988 14.7727 13.2429 17.5176 13.7773 16.5146C13.8517 16.3749 13.8695 15.825 13.8539 14.1489L13.8336 11.9651L13.6378 11.5648C13.5301 11.3446 13.3362 11.0371 13.207 10.8814C12.476 10.0008 12.8554 9.81778 15.4127 9.81778H17.4585L17.6687 9.99336L17.8789 10.169L17.9164 12.9078C17.9566 15.8506 17.9466 15.7828 18.3404 15.7856C18.9611 15.7898 20.4504 13.8704 21.6979 11.4583C22.5323 9.84508 25.2793 8.96402 26.1635 10.026C26.4959 10.4252 25.5737 12.3259 23.7835 14.9312C22.6178 16.6275 22.587 16.3899 24.1807 17.9869C27.3878 21.2004 27.5175 22.1195 24.7637 22.1195C22.856 22.1195 23.0286 22.1979 21.4876 20.6313C18.6898 17.7872 17.9787 17.6874 17.9164 20.1302C17.8665 22.0816 17.7772 22.1794 16.1184 22.0982C12.438 21.9179 9.31859 19.3757 6.90003 14.5856C4.87176 10.5685 4.96473 9.81232 7.48345 9.83846L8.99916 9.85418L9.22413 10.0729Z" fill="white"/>
</svg>
