<svg width="390" height="216" viewBox="0 0 390 216" fill="none" xmlns="http://www.w3.org/2000/svg">
<path d="M274.282 104.687C274.463 99.095 274.405 99.203 277.876 98.0315L280.309 97.2102L280.548 101.417C280.679 103.73 281.107 106.981 281.499 108.642C283.595 117.53 283.014 118.494 270.486 126.884C255.422 136.973 249.306 149.072 241.924 183.391C237.873 202.225 235.768 208.294 231.787 212.623C228.734 215.944 230.029 215.74 211.098 215.876L194.398 215.995V212.61L201.989 212.816C206.164 212.929 212.934 213.372 217.032 213.8C223.292 214.453 224.559 214.5 224.95 214.093C226.033 212.968 233.996 202.884 233.888 202.775C233.822 202.71 231.863 203.058 229.533 203.548C222.64 204.999 217.779 205.593 212.82 205.591C207.911 205.588 206.88 205.449 200.828 203.973C198.765 203.47 196.565 203.058 195.938 203.057C194.334 203.057 194.127 202.425 195.636 202.141C197.01 201.883 197.841 201.973 201.971 202.827C204.577 203.366 216.576 204.577 216.826 204.327C216.89 204.262 215.586 202.151 213.928 199.636L210.913 195.063L214.89 192.031C217.078 190.364 219.511 188.39 220.297 187.646C221.15 186.838 222.697 185.929 224.137 185.391L226.548 184.488V188.37C226.548 192.939 225.804 194.771 221.747 200.195C219.05 203.801 219 203.573 222.283 202.652C233.882 199.397 236.877 192.002 231.902 178.9L231.526 177.909L227.469 178.141C222.737 178.412 219.519 179.293 217.027 180.998C212.887 183.834 205.826 187.318 204.22 187.318C203.828 187.318 204.928 185.202 206.381 183.163C210.13 177.902 214.886 175.82 224.715 175.139C227.145 174.97 229.175 174.784 229.226 174.726C229.278 174.667 228.859 168.904 228.294 161.92C227.729 154.936 227.313 149.08 227.369 148.909C227.424 148.737 229.783 153.695 232.609 159.926C235.435 166.158 237.854 171.322 237.983 171.402C238.366 171.639 240.42 164.7 241.359 160.004C242.75 153.039 242.98 149.514 242.98 135.126C242.98 119.014 243.029 118.89 245.298 129.261C246.972 136.91 247.09 137.281 247.611 136.485C249.311 133.885 252.594 130.254 254.616 128.737C256.888 127.033 258.294 126.257 264.427 123.316C271.14 120.099 273.955 114.778 274.282 104.687Z" fill="#A8291F"/>
<path d="M194.398 190.97L198.774 189.344C203.955 187.418 203.686 187.464 203.686 188.498C203.686 188.951 203.873 189.508 204.102 189.737C204.66 190.296 198.458 193.308 196.095 193.625L194.398 193.854V190.97Z" fill="#A8291F"/>
<path d="M107.226 109.515C107.62 107.941 108.135 104.533 108.369 101.943L108.795 97.2323L111.073 98.0604C114.689 99.3746 114.625 99.2523 114.817 105.327C115.156 116.115 117.623 120.067 126.689 124.352C133.583 127.61 137.312 130.604 140.64 135.552C141.589 136.964 141.855 137.176 142.009 136.645C142.115 136.282 142.965 132.489 143.9 128.216C144.835 123.942 145.666 120.513 145.747 120.594C145.829 120.675 145.94 127.633 145.995 136.055C146.102 152.44 146.301 154.891 148.15 162.635C149.119 166.691 150.395 170.871 150.802 171.321C150.941 171.475 153.372 166.492 156.204 160.249C159.036 154.006 161.409 149.19 161.477 149.548C161.546 149.906 161.166 155.66 160.632 162.335C160.097 169.01 159.747 174.557 159.853 174.663C159.958 174.769 162.108 174.996 164.63 175.168C172.787 175.723 177.476 177.484 181.027 181.325C187.946 188.808 184.037 188.573 171.358 180.742C168.343 178.88 166.249 178.365 161.322 178.274L157.081 178.196L156.072 183.025C153.482 195.425 155.099 198.854 165.073 202.104C170.006 203.712 170.086 203.713 168.727 202.163C163.828 196.576 161.97 192.152 162.434 187.187L162.681 184.546L165.055 185.464C166.36 185.97 167.911 186.882 168.5 187.491C169.089 188.101 171.46 190.024 173.769 191.766C176.078 193.508 177.966 194.995 177.966 195.071C177.966 195.146 176.71 197.095 175.173 199.401C173.637 201.707 172.258 203.801 172.108 204.053C171.892 204.418 172.341 204.469 174.276 204.297C181.826 203.627 187.053 202.975 188.572 202.513C191.157 201.728 194.732 201.87 194.197 202.737C194.088 202.913 193.483 203.057 192.852 203.057C192.222 203.057 189.78 203.549 187.426 204.151C178.785 206.361 167.803 205.919 156.623 202.911C154.347 202.299 154.084 201.792 159.748 208.931L164.213 214.559L166.535 214.345C167.812 214.227 171.108 213.888 173.858 213.591C176.609 213.294 182.355 212.952 186.629 212.829L194.398 212.607V216L160.998 215.756L159.309 214.581C154.578 211.291 151.623 204.391 148.147 188.515C147.249 184.413 145.934 178.401 145.224 175.155C139.45 148.731 132.407 136.281 117.596 126.323C106.335 118.752 105.322 117.109 107.226 109.515Z" fill="#A8291F"/>
<path d="M161.713 148.684C161.615 148.684 161.534 148.604 161.534 148.506C161.534 148.407 161.615 148.327 161.713 148.327C161.811 148.327 161.892 148.407 161.892 148.506C161.892 148.604 161.811 148.684 161.713 148.684Z" fill="#A8291F"/>
<path d="M185.142 189.266C185.355 189.134 185.451 188.721 185.354 188.35C185.125 187.472 184.967 187.441 189.933 189.253L194.22 190.817L194.444 193.86L192.795 193.634C189.275 193.15 183.859 190.059 185.142 189.266Z" fill="#A8291F"/>
<path fill-rule="evenodd" clip-rule="evenodd" d="M-1 0.222529C-1 3.62117 21.8563 18.8583 34.2103 23.6957C48.1425 29.1508 87.1576 32.9383 107.917 30.8507L110.562 30.5849L110.34 33.4681C110.218 35.0535 109.872 37.1986 109.572 38.2346C108.825 40.8076 108.664 51.1334 109.325 54.0194L109.805 56.116L111.2 54.7516C111.967 54.0011 112.595 53.5047 112.595 53.6478C112.595 54.0162 110.173 58.7891 109.212 60.313C108.732 61.0746 108.018 63.4563 107.436 66.2343C106.854 69.0165 106.709 70.3384 106.012 70.7761C105.295 71.2255 103.996 70.7427 101.04 69.9513L99.6648 69.5832L100.185 56.0104L97.8905 58.4382C93.8732 62.6882 93.3814 63.4076 92.4308 66.4206C91.781 68.48 91.5195 70.1033 91.5195 72.0761V74.843L96.0741 77.1417C103.337 80.8075 106.653 84.5896 107.958 90.6972L108.523 93.3425L109.845 92.1807C111.448 90.7713 111.647 88.2222 110.461 84.3145C110.047 82.9529 109.804 82.269 110.035 82.0087C110.286 81.727 111.093 81.9415 112.844 82.3299C120.63 84.0581 122.354 85.212 124.564 90.1778C125.791 92.9369 125.961 93.1529 126.592 92.7662C127.167 92.4139 127.347 92.4625 127.683 93.0599C130.755 98.5279 139.095 102.195 151.314 103.45C168.191 105.183 171.421 110.659 169.45 134.197C169.186 137.345 169.026 141.425 169.092 143.263L169.215 146.606L173.567 135.751C175.961 129.781 181.047 117.138 184.871 107.656L191.824 90.4157L189.271 92.6346C179.867 100.809 176.826 101.112 160.767 95.4806L154.035 93.1193L151.197 89.8237C143.031 80.3371 134.782 77.0834 117.239 76.4295C106.318 76.022 105.656 75.8525 102.337 72.6026C101.004 71.2984 100.155 70.3276 100.45 70.4456C102.913 71.4315 106.976 72.5307 107.2 72.2721C107.351 72.0975 107.981 70.0679 108.601 67.7617C109.468 64.534 110.025 63.1776 111.021 61.8712C112.581 59.824 112.865 59.1279 113.518 55.7368C113.956 53.4683 114.139 52.5624 113.859 52.3832C113.667 52.2603 113.257 52.4791 112.561 52.8346C111.956 53.1434 111.532 53.4233 111.3 53.3098C110.762 53.0472 111.25 50.6774 112.904 41.6815C115.559 27.2302 115.611 26.7155 114.891 21.8653C113.926 15.3588 113.539 14.9238 107.599 13.6639L103.736 12.8448L100.444 14.7704L103.037 15.1796C109.859 16.2559 110.218 16.6187 110.636 22.8586L110.895 26.704L104.154 26.6976C53.7301 26.6493 28.6523 20.5503 2.03636 1.86158C-0.785669 -0.119792 -1 -0.235702 -1 0.222529ZM141.323 89.8838L138.837 89.456C137.469 89.221 135.724 88.9072 134.959 88.7591C133.232 88.4243 133.386 88.7588 136.114 91.2606C137.18 92.2386 138.651 93.8483 139.383 94.8377C143.618 100.56 144.977 101.197 152.621 101.044C156.436 100.967 157.976 100.937 158.156 100.426C158.277 100.08 157.775 99.5135 156.934 98.5637L155.548 96.9998L154.327 97.5829C147.829 100.686 141.369 98.1262 141.338 92.4354L141.323 89.8838Z" fill="#A8291F"/>
<path fill-rule="evenodd" clip-rule="evenodd" d="M386.225 2.26121C359.987 20.29 338.775 25.7744 292.187 26.575L277.987 26.8189L278.202 23.4528C278.631 16.7221 279.482 15.8951 286.883 15.0172L288.813 14.7883L285.028 12.8674L281.884 13.5131C275.501 14.8241 274.959 15.4107 274.026 22.0248C273.416 26.3442 273.795 29.9918 276.144 42.4435C277.276 48.4441 278.085 53.4035 277.943 53.4639C277.8 53.5247 277.024 53.2375 276.218 52.8258L274.753 52.0771L274.933 52.8944C275.032 53.3437 275.292 54.7567 275.51 56.0341C276.012 58.9734 276.51 60.1467 278.025 61.9596C278.993 63.1186 279.482 64.3263 280.449 67.9513C281.115 70.4485 281.798 72.4914 281.967 72.4914C282.136 72.4914 283.721 72.0257 285.489 71.4562C288.464 70.4982 289.724 70.489 287.952 71.4383C287.539 71.6598 286.535 72.5344 285.72 73.3814C283.485 75.7066 281.928 76.0446 271.736 76.4191C254.168 77.0648 245.137 80.707 237.387 90.2709C236.702 91.1164 236.238 91.7045 235.687 92.1943C234.347 93.3849 232.492 93.9947 225.697 96.3105C212.049 100.962 207.817 100.307 199.31 92.2204C198.181 91.1469 197.256 90.376 197.256 90.508C197.256 90.9398 219.495 145.993 219.811 146.341C220.297 146.879 220.163 140.462 219.561 134.376C217.248 111.006 220.651 105.237 237.8 103.453C249.694 102.216 257.18 98.9873 261.061 93.4198C261.699 92.5051 261.89 92.4172 262.37 92.816C262.863 93.2256 263.133 92.8664 264.551 89.9074C266.856 85.0976 268.424 84.0427 275.623 82.462C277.608 82.026 278.527 81.7818 278.815 82.1038C279.085 82.404 278.807 83.196 278.336 84.7832C277.193 88.6376 277.51 90.9466 279.389 92.4583L280.75 93.5536L280.941 91.5182C281.512 85.4206 285.478 80.7453 293.348 76.8909C295.607 75.7845 297.513 74.8341 297.584 74.7794C299.448 73.3238 295.824 63.4305 291.897 59.256L288.7 55.8578L288.893 61.0446C288.998 63.8974 289.156 66.9118 289.244 67.7435C289.435 69.5618 289.184 69.7456 285.449 70.5322C284.103 70.8159 283.382 71.0255 282.917 70.7692C282.302 70.4305 282.135 69.2787 281.563 66.4103C280.867 62.9226 280.434 61.725 278.715 58.5406C275.986 53.4854 275.858 53.0597 277.568 54.7277C278.343 55.4832 279.057 55.9661 279.155 55.8009C280.266 53.9161 280.367 41.3653 279.299 37.6144C279.02 36.6306 278.673 34.6471 278.529 33.207L278.267 30.5878L280.896 30.8507C297.769 32.5377 322.948 30.811 344.609 26.4812C358.6 23.6846 378.585 12.6374 388.1 2.44006C391.066 -0.737864 390.647 -0.777928 386.225 2.26121ZM253.479 90.6075C254.384 89.8642 255.125 89.1058 255.125 88.9223C255.125 88.4995 254.34 88.5538 252.089 89.1333C251.107 89.3862 249.685 89.6084 248.93 89.6274L247.557 89.6617L247.795 91.3984C248.583 97.1354 242.14 100.581 235.517 97.9642C234.115 97.4108 233.411 97.2992 232.934 97.5554C232.34 97.8734 230.476 100.294 230.478 100.744C230.479 100.846 233.044 100.98 236.179 101.042C244.073 101.198 244.905 100.813 249.582 94.8346C250.819 93.2532 252.573 91.3508 253.479 90.6075Z" fill="#A8291F"/>
</svg>
